<?xml version="1.0" standalone="no"?>
<!DOCTYPE svg PUBLIC "-//W3C//DTD SVG 20010904//EN"
 "http://www.w3.org/TR/2001/REC-SVG-20010904/DTD/svg10.dtd">
<svg version="1.0" xmlns="http://www.w3.org/2000/svg"
 width="870.000000pt" height="870.000000pt" viewBox="0 0 870.000000 870.000000"
 preserveAspectRatio="xMidYMid meet">
<metadata>
Created by potrace 1.14, written by Peter Selinger 2001-2017
</metadata>
<g transform="translate(0.000000,870.000000) scale(0.100000,-0.100000)"
fill="#000000" stroke="none">
<path d="M4329 7738 c-1 -7 -1 -20 0 -29 2 -20 -18 -38 -50 -42 -29 -5 -23
-22 8 -21 12 1 20 -2 18 -6 -3 -5 2 -11 10 -14 11 -4 14 -16 12 -41 -4 -28 -1
-35 11 -33 10 2 16 15 16 36 1 36 26 62 60 62 10 0 16 3 12 7 -11 11 -36 12
-36 1 0 -17 -35 25 -36 44 -1 10 -2 25 -3 33 -1 18 -21 20 -22 3z"/>
<path d="M4324 7500 c-31 -12 -52 -46 -49 -78 2 -15 18 -66 37 -115 38 -96 33
-95 72 -4 36 81 44 122 30 155 -11 28 -41 53 -61 51 -4 0 -18 -4 -29 -9z"/>
<path d="M4184 7448 c9 -19 12 -38 9 -42 -4 -3 -2 -6 4 -6 8 0 12 -22 14 -87
1 -13 4 -23 8 -23 4 0 7 -10 8 -22 1 -34 19 -150 23 -155 2 -2 3 -9 4 -15 0
-7 8 -14 17 -16 12 -2 15 5 13 30 -1 18 -5 43 -7 54 -3 12 -8 37 -11 55 -3 19
-10 49 -15 67 -5 17 -7 32 -4 32 3 0 1 6 -5 13 -6 6 -10 14 -9 17 4 17 -29
102 -44 116 -19 17 -19 17 -5 -18z"/>
<path d="M4491 7443 c-13 -28 -23 -66 -24 -90 0 -7 -4 -13 -8 -13 -4 0 -6 -8
-4 -17 1 -10 -1 -26 -6 -35 -5 -9 -11 -32 -13 -50 -3 -19 -7 -45 -10 -58 -12
-48 -13 -90 -4 -96 16 -10 28 10 32 52 3 21 5 41 6 44 1 3 2 8 1 12 0 4 4 31
10 60 6 29 13 69 16 88 3 19 9 40 14 46 5 6 7 13 4 16 -3 2 -1 19 4 36 12 39
-1 42 -18 5z"/>
<path d="M1006 7452 c-3 -5 -8 -27 -11 -48 -3 -22 -8 -50 -10 -64 -17 -100
-23 -259 -12 -325 3 -16 8 -50 12 -75 4 -25 11 -52 16 -61 4 -9 10 -27 13 -41
7 -42 54 -133 118 -231 65 -98 194 -257 209 -257 5 0 9 -6 9 -13 0 -17 259
-267 276 -267 3 0 11 -6 19 -12 61 -59 288 -199 304 -189 2 2 7 -2 10 -7 3 -5
16 -13 29 -17 l23 -7 -25 39 c-30 45 -70 115 -71 125 0 3 -3 10 -7 14 -5 4 -8
16 -8 26 0 33 -27 74 -67 100 -21 14 -53 40 -71 57 -18 17 -34 31 -35 31 -1 0
-47 43 -102 95 -55 52 -103 95 -107 95 -4 0 -8 4 -8 9 0 4 -15 24 -32 43 -18
19 -44 49 -58 67 -14 18 -30 38 -36 44 -5 7 -13 19 -17 27 -4 8 -16 29 -27 45
-23 35 -62 114 -66 134 -1 8 -6 17 -11 20 -4 3 -13 20 -19 38 -10 26 -9 35 2
44 8 6 14 8 14 3 1 -5 25 -25 55 -44 30 -19 55 -37 55 -40 0 -3 32 -38 70 -78
39 -39 70 -74 70 -77 0 -5 98 -130 156 -199 14 -16 34 -43 46 -60 12 -17 26
-35 32 -41 6 -5 27 -30 46 -55 18 -25 46 -57 60 -72 l26 -27 -2 32 c-4 46 -11
73 -28 104 -8 16 -22 42 -30 60 -9 17 -20 35 -26 38 -6 4 -8 10 -6 14 3 4 -2
19 -12 32 -22 31 -49 80 -58 102 -3 9 -10 17 -15 17 -5 0 -9 5 -9 10 0 6 -17
37 -37 68 -21 31 -44 70 -52 85 -8 15 -18 27 -23 27 -4 0 -8 6 -8 13 0 7 -9
23 -20 35 -11 12 -20 24 -20 27 0 15 -118 171 -204 269 -28 32 -59 68 -69 80
-46 53 -150 156 -158 156 -5 0 -9 6 -10 13 -1 17 -76 80 -83 69z"/>
<path d="M7597 7378 c-100 -100 -229 -243 -239 -266 -4 -10 -7 -13 -7 -7 -1 5
-13 -7 -28 -28 -14 -20 -30 -37 -35 -37 -5 0 -7 -4 -4 -9 3 -4 -4 -17 -15 -27
-12 -11 -55 -71 -97 -134 -42 -63 -78 -117 -81 -120 -8 -7 -27 -39 -47 -77 -9
-18 -22 -37 -30 -44 -8 -6 -14 -15 -14 -20 0 -4 -13 -30 -28 -56 -26 -43 -103
-185 -123 -223 -25 -49 -33 -131 -12 -123 7 3 13 8 13 12 0 7 81 113 119 156
9 11 42 52 72 90 67 87 72 93 84 108 6 7 33 41 62 77 52 66 211 224 228 227 6
1 18 5 28 8 12 5 17 2 17 -12 0 -10 -5 -24 -12 -31 -7 -7 -9 -12 -6 -12 4 0 1
-12 -7 -27 -8 -15 -12 -30 -9 -35 3 -4 1 -8 -4 -8 -6 0 -23 -27 -38 -60 -15
-33 -31 -60 -36 -60 -4 0 -8 -4 -8 -10 0 -5 -26 -43 -57 -84 -54 -72 -304
-320 -344 -342 -11 -5 -16 -13 -13 -17 4 -4 2 -7 -5 -7 -28 0 -101 -75 -117
-120 -27 -74 -42 -105 -79 -160 -19 -29 -35 -56 -35 -60 0 -11 141 63 233 122
42 28 77 54 77 59 0 5 4 8 8 6 4 -1 45 30 91 68 45 39 100 84 121 100 22 17
39 34 40 38 0 4 11 18 25 31 14 13 39 40 55 61 17 21 30 34 30 30 0 -4 17 14
37 41 21 27 42 54 48 60 28 31 45 55 45 63 0 5 7 12 16 15 8 3 12 10 9 16 -3
5 -2 10 3 10 9 0 70 89 70 104 0 5 4 12 9 15 13 9 70 128 87 181 43 136 49
274 22 480 -9 65 -19 111 -27 116 -5 2 -46 -33 -92 -78z"/>
<path d="M4060 7428 c-40 -10 -75 -45 -62 -62 5 -6 8 -18 7 -26 -1 -13 16 -66
40 -125 5 -11 9 -22 10 -25 5 -15 20 -50 38 -93 18 -40 25 -47 42 -42 11 3 25
7 30 8 24 6 31 18 29 49 -2 37 -14 110 -19 118 -4 6 -17 88 -18 108 0 6 -4 12
-9 12 -5 0 -7 4 -4 8 6 11 -23 70 -37 75 -7 2 -28 0 -47 -5z"/>
<path d="M4607 7432 c-27 -3 -31 -9 -53 -67 -9 -24 -8 -21 -18 -70 -13 -58
-14 -64 -22 -125 -11 -87 -10 -105 5 -102 7 1 19 -2 27 -9 30 -25 51 3 105
141 11 30 23 66 25 79 3 13 9 32 15 43 5 10 6 18 2 18 -4 0 -2 4 5 8 20 13 -2
59 -35 74 -15 8 -41 12 -56 10z"/>
<path d="M5186 7279 c3 -5 1 -9 -4 -9 -5 0 -9 -10 -9 -22 -1 -41 -3 -44 -30
-46 -44 -4 -46 -19 -3 -27 29 -6 42 -23 37 -51 -2 -12 2 -29 9 -39 13 -17 14
-17 23 6 4 13 7 34 5 46 -3 16 4 25 26 37 19 9 28 10 24 3 -5 -8 -3 -8 6 0 8
7 11 15 9 18 -4 4 -38 12 -61 14 -4 1 -6 16 -4 35 2 26 -2 36 -16 39 -10 3
-16 1 -12 -4z"/>
<path d="M5608 7277 c-14 -9 -10 -15 29 -39 41 -26 55 -37 86 -64 16 -14 77
-35 77 -26 0 4 4 2 8 -5 5 -8 13 -9 22 -3 12 7 12 14 4 27 -18 29 -128 102
-164 108 -18 3 -36 7 -39 9 -3 2 -13 -1 -23 -7z"/>
<path d="M3008 7270 c-15 -4 -33 -13 -40 -19 -7 -6 -34 -27 -60 -46 -30 -22
-45 -41 -43 -52 1 -10 9 -16 16 -15 8 2 21 5 31 7 27 6 118 61 111 68 -3 4 1
7 11 7 9 0 19 7 22 15 4 8 12 15 19 15 7 0 18 7 25 15 11 13 7 15 -26 14 -22
0 -51 -4 -66 -9z"/>
<path d="M3486 7254 c4 -38 -6 -56 -27 -51 -11 3 -22 1 -25 -4 -3 -5 -11 -6
-17 -2 -7 4 -6 -1 2 -11 8 -9 21 -14 28 -11 15 5 44 -17 42 -32 -1 -4 -1 -21
0 -36 1 -21 5 -28 19 -25 12 2 17 13 17 39 0 41 26 74 44 56 6 -6 11 -9 12 -6
0 2 2 12 4 21 2 11 -3 15 -14 13 -28 -5 -46 12 -46 42 -1 21 -6 29 -22 31 -17
3 -20 -2 -17 -24z"/>
<path d="M3155 7188 c-8 -21 -16 -41 -17 -45 -1 -5 -10 -17 -20 -27 -10 -11
-18 -26 -18 -33 0 -7 -4 -13 -10 -13 -5 0 -10 -5 -10 -12 0 -6 -6 -19 -13 -27
-32 -37 -55 -126 -45 -173 5 -23 49 -69 59 -62 5 3 9 0 9 -5 0 -6 5 -11 11
-11 6 0 8 9 3 23 -7 21 -7 29 -3 75 1 9 10 31 19 47 9 17 29 52 44 80 16 27
30 58 32 69 2 11 7 23 12 28 13 13 2 71 -18 98 l-19 25 -16 -37z"/>
<path d="M5520 7210 c-8 -5 -15 -13 -15 -17 -1 -4 -6 -18 -13 -30 -10 -19 -9
-32 9 -80 11 -32 23 -66 26 -75 3 -10 9 -18 14 -18 5 0 9 -5 9 -11 0 -6 8 -23
18 -37 29 -43 43 -100 30 -128 -6 -13 -8 -27 -3 -32 4 -4 10 -1 12 6 3 6 8 10
12 7 5 -2 17 6 29 18 24 26 45 94 31 103 -5 3 -9 15 -9 27 0 24 -79 167 -92
167 -5 0 -7 4 -3 9 3 5 -2 17 -11 25 -8 9 -13 16 -9 16 3 0 0 10 -7 23 -7 12
-11 25 -10 30 3 9 0 9 -18 -3z"/>
<path d="M2759 7128 c-31 -10 -49 -45 -38 -73 15 -40 22 -60 25 -73 1 -7 12
-32 25 -55 19 -36 22 -59 24 -157 2 -114 17 -200 35 -200 6 0 9 3 8 8 -2 11
14 85 23 103 20 38 32 176 17 185 -5 3 -6 10 -3 15 4 5 1 9 -5 9 -6 0 -9 4 -5
10 3 5 2 17 -3 27 -32 62 -59 145 -57 175 2 32 -10 38 -46 26z"/>
<path d="M5899 7132 c-1 -4 -2 -20 -4 -37 -1 -16 -7 -42 -13 -57 -6 -16 -8
-28 -4 -28 4 0 2 -4 -4 -8 -6 -4 -21 -36 -34 -72 -27 -78 -29 -155 -5 -236 10
-33 19 -72 21 -88 4 -33 15 -47 21 -29 3 7 4 15 3 19 -1 4 4 10 10 14 9 5 13
48 14 136 2 79 7 138 14 152 7 12 10 22 7 22 -3 0 2 11 11 25 9 14 13 25 10
25 -4 0 0 10 8 23 8 12 18 37 21 56 3 19 8 38 11 42 5 8 -17 22 -60 39 -14 5
-26 6 -27 2z"/>
<path d="M3483 7028 c-26 -7 -33 -14 -33 -33 0 -14 5 -25 12 -25 6 0 8 -3 5
-7 -4 -3 2 -20 13 -38 11 -18 17 -35 13 -39 -4 -4 0 -4 8 -1 17 6 51 75 55
111 3 29 -31 44 -73 32z"/>
<path d="M5167 7027 c-15 -5 -27 -16 -27 -24 0 -23 32 -93 43 -93 4 0 5 -5 1
-11 -4 -7 -1 -10 7 -7 22 7 61 89 55 114 -7 25 -40 34 -79 21z"/>
<path d="M4326 7023 c-2 -2 -28 -6 -57 -9 -80 -7 -92 -9 -113 -21 -27 -15 -12
-22 79 -40 61 -12 259 -4 284 11 6 4 11 4 11 1 0 -3 6 0 14 7 11 11 8 15 -17
26 -17 7 -53 15 -81 17 -28 3 -66 7 -84 8 -18 2 -34 2 -36 0z"/>
<path d="M3321 6990 c-24 -5 -39 -40 -18 -40 5 0 7 -3 4 -7 -4 -3 4 -20 16
-37 13 -17 26 -35 28 -41 2 -5 14 -26 27 -46 17 -28 27 -35 45 -32 18 4 23 11
23 34 0 16 -2 29 -6 29 -3 0 -6 10 -8 23 -3 38 -29 102 -41 100 -6 -2 -11 1
-11 6 0 12 -31 18 -59 11z"/>
<path d="M3628 6981 c-26 -15 -54 -85 -63 -162 -4 -31 15 -44 38 -26 18 15 89
117 81 117 -3 0 2 7 10 16 19 18 21 64 4 65 -7 0 -20 2 -28 3 -8 2 -27 -4 -42
-13z"/>
<path d="M4996 6978 c-13 -19 -12 -24 10 -57 13 -19 24 -39 24 -44 0 -4 5 -13
10 -20 6 -7 19 -24 31 -39 12 -17 30 -28 44 -28 27 0 28 23 1 112 -16 57 -37
87 -59 89 -7 0 -20 2 -30 4 -9 2 -24 -6 -31 -17z"/>
<path d="M5326 6984 c-11 -7 -23 -15 -28 -16 -8 -3 -32 -81 -42 -144 -7 -37
14 -52 39 -28 8 9 15 12 15 7 0 -4 12 12 26 37 14 25 36 61 50 81 24 35 24 68
0 70 -6 0 -18 2 -27 4 -8 1 -23 -3 -33 -11z"/>
<path d="M4327 6892 c-13 -14 -13 -20 -2 -35 11 -15 17 -16 34 -7 26 13 27 36
2 49 -14 8 -22 6 -34 -7z"/>
<path d="M4123 6873 c-52 -13 -90 -31 -111 -50 -7 -7 -17 -13 -22 -13 -11 0
-80 -89 -80 -102 0 -5 3 -7 8 -5 4 3 29 8 56 11 27 4 56 11 65 16 9 4 18 8 21
8 14 1 48 17 73 35 27 18 87 92 87 106 0 10 -47 7 -97 -6z"/>
<path d="M4487 6858 c29 -49 98 -103 155 -122 61 -20 148 -32 148 -19 0 4 -20
30 -45 58 -25 27 -45 46 -45 42 0 -4 -9 1 -21 11 -24 23 -106 50 -167 56 l-42
4 17 -30z"/>
<path d="M539 6813 c-5 -77 3 -228 15 -281 12 -55 54 -172 65 -182 10 -9 31
-44 37 -62 4 -10 10 -18 14 -18 5 0 12 -9 15 -20 3 -11 10 -20 14 -20 4 0 42
-34 85 -75 43 -41 81 -75 83 -75 3 0 21 -13 40 -30 18 -16 40 -30 48 -30 8 0
15 -6 15 -13 0 -8 20 -24 45 -37 25 -13 50 -29 56 -37 6 -7 18 -13 25 -13 8 0
14 -3 14 -7 0 -5 35 -26 78 -48 42 -22 79 -43 82 -46 5 -5 34 -19 160 -77 69
-31 189 -73 250 -86 11 -3 24 -7 29 -10 5 -3 28 -8 50 -11 38 -5 41 -4 32 12
-13 25 -53 61 -71 65 -8 2 -17 5 -20 8 -3 4 -30 18 -60 33 -54 27 -134 70
-214 116 -22 13 -71 44 -109 69 -38 26 -83 55 -101 64 -17 9 -27 17 -21 18 5
0 -14 16 -43 36 -29 20 -52 41 -52 45 0 5 -7 9 -15 9 -8 0 -15 7 -15 16 0 8
-3 14 -7 12 -10 -5 -72 59 -65 67 3 3 -2 5 -12 5 -9 0 -15 4 -12 9 3 5 -1 11
-9 15 -8 3 -15 13 -15 21 0 9 -4 13 -10 10 -5 -3 -10 1 -10 9 0 9 -4 16 -9 16
-5 0 -11 9 -14 20 -8 29 26 26 98 -11 33 -17 70 -36 82 -43 13 -6 23 -14 23
-18 0 -5 6 -8 14 -8 8 0 16 -3 18 -7 5 -11 66 -53 77 -53 5 0 11 -3 13 -7 3
-7 64 -54 333 -258 44 -33 85 -67 92 -76 7 -9 21 -19 32 -22 20 -5 20 -4 -1
52 -19 51 -47 91 -64 91 -3 0 -15 11 -26 25 -11 14 -26 25 -34 25 -8 0 -14 7
-14 15 0 8 -7 15 -16 15 -8 0 -13 4 -9 9 3 5 -1 11 -9 13 -8 2 -47 35 -88 73
-41 39 -93 87 -116 107 -23 21 -42 42 -42 48 0 5 -4 10 -9 10 -5 0 -51 40
-102 90 -52 49 -95 90 -95 90 -1 0 -17 14 -35 31 -19 18 -70 61 -114 96 -44
35 -93 75 -110 88 -16 14 -35 25 -40 25 -6 0 -22 10 -36 23 -34 30 -55 43
-118 72 -64 30 -71 30 -72 8z"/>
<path d="M2672 6792 c-49 -45 -56 -68 -16 -50 19 9 30 9 43 1 22 -14 36 -4 35
22 -1 11 -2 30 -3 43 -1 31 -11 28 -59 -16z"/>
<path d="M5968 6812 c-2 -9 -2 -31 0 -49 4 -28 6 -31 27 -23 25 9 44 8 63 -3
7 -5 12 -4 12 3 0 13 -48 61 -77 77 -18 10 -22 10 -25 -5z"/>
<path d="M8100 6813 c-19 -10 -37 -21 -38 -25 -2 -5 -8 -6 -13 -2 -5 3 -9 0
-9 -6 0 -6 -4 -8 -10 -5 -5 3 -10 1 -10 -4 0 -6 -7 -11 -15 -11 -8 0 -15 -4
-15 -10 0 -5 -5 -10 -11 -10 -6 0 -30 -15 -53 -32 -22 -18 -45 -36 -51 -40
-145 -111 -329 -276 -534 -479 -9 -8 -61 -55 -116 -104 -55 -49 -102 -92 -105
-95 -3 -3 -24 -20 -48 -39 -23 -18 -45 -45 -48 -59 -4 -15 -11 -33 -17 -40 -5
-7 -7 -15 -4 -19 4 -3 2 -12 -4 -20 -8 -9 -8 -13 0 -13 6 0 16 9 23 20 7 11
16 20 21 20 4 0 33 19 63 43 72 54 133 101 285 215 68 51 135 102 149 113 13
10 30 19 36 19 6 0 17 7 24 15 18 22 171 94 187 88 22 -9 -11 -56 -114 -161
-84 -85 -211 -192 -229 -192 -2 0 -28 -17 -57 -39 -52 -38 -137 -87 -252 -145
-33 -17 -62 -33 -65 -36 -3 -4 -32 -20 -65 -36 -60 -29 -94 -58 -95 -82 0 -12
10 -12 68 2 12 4 30 8 40 10 43 10 190 60 217 74 17 9 32 17 35 17 20 3 100
39 100 45 0 4 12 11 26 14 15 4 43 18 63 32 19 13 39 24 43 24 4 0 27 14 51
30 25 17 50 30 56 30 6 0 11 4 11 8 0 5 11 14 25 20 21 10 167 114 185 132 3
3 40 36 83 74 91 80 185 206 179 239 -1 4 2 7 7 7 4 0 14 21 21 48 7 26 17 52
22 59 6 7 7 17 3 23 -3 5 -3 15 1 22 10 16 15 66 17 178 2 107 -3 112 -63 83z"/>
<path d="M3403 6729 c-12 -4 -13 -8 -4 -13 6 -4 18 -5 26 -2 8 3 15 2 15 -2 0
-4 28 -6 63 -5 34 1 62 2 62 3 0 1 8 3 18 5 26 5 34 15 14 16 -79 4 -181 3
-194 -2z"/>
<path d="M5113 6732 c-18 -2 -33 -6 -33 -10 0 -12 119 -17 189 -8 46 5 67 15
35 17 -55 3 -163 4 -191 1z"/>
<path d="M3250 6659 c0 -6 -4 -7 -10 -4 -20 13 -9 -33 20 -78 16 -26 32 -47
34 -47 4 0 2 21 -9 95 -2 11 -4 23 -4 26 -2 12 -31 19 -31 8z"/>
<path d="M3337 6657 c-2 -7 2 -31 9 -54 7 -24 10 -43 7 -43 -4 0 -2 -5 5 -12
7 -7 12 -18 12 -26 0 -13 48 -80 75 -107 17 -16 85 -49 90 -43 3 3 8 16 10 28
6 33 8 33 51 0 21 -16 43 -30 47 -30 4 0 27 -9 49 -20 28 -13 45 -17 52 -10 7
7 6 10 -1 10 -6 0 -10 8 -9 17 3 18 32 27 42 12 3 -5 12 -9 21 -9 12 0 14 7
10 28 -3 15 -2 34 4 42 5 8 9 10 9 4 0 -16 51 -37 62 -26 6 6 6 12 -1 16 -8 5
-8 13 0 27 10 19 13 17 59 -24 48 -43 122 -74 165 -70 11 2 32 4 47 5 27 3 49
27 25 29 -31 2 -50 10 -104 45 -32 21 -60 39 -62 40 -6 5 9 54 17 52 14 -3 42
15 42 27 0 7 -12 20 -26 30 l-26 17 33 28 34 28 -35 -3 c-19 -2 -35 -5 -35 -6
0 -6 -176 -17 -380 -23 -87 -3 -149 0 -188 9 -31 7 -60 14 -62 14 -3 1 -6 1
-7 2 -22 6 -38 5 -41 -4z"/>
<path d="M4650 6638 l35 -33 -28 -9 c-35 -13 -34 -26 3 -59 17 -16 27 -33 24
-41 -7 -19 -87 -70 -137 -87 -36 -13 -45 -33 -16 -35 8 -1 17 -3 22 -4 50 -14
149 15 201 61 52 46 70 50 64 14 -7 -33 7 -41 38 -20 32 21 45 12 34 -25 l-9
-30 40 6 c34 6 38 4 33 -10 -8 -21 21 -32 41 -16 8 7 15 9 15 5 0 -4 11 0 25
9 14 9 25 14 25 11 0 -3 19 9 42 25 l43 31 10 -29 c7 -20 16 -28 28 -26 25 3
84 50 104 82 10 15 21 29 24 32 4 3 14 30 23 60 9 30 21 67 26 83 8 26 2 33
-25 27 -5 -1 -19 -3 -30 -5 -11 -1 -20 -3 -20 -5 0 -6 -106 -12 -215 -12 -178
0 -319 9 -420 27 l-34 6 34 -33z"/>
<path d="M5432 6661 c-6 -4 -13 -17 -15 -29 -2 -12 -6 -24 -9 -28 -4 -3 -4
-12 -2 -19 3 -7 1 -23 -6 -34 -7 -13 -7 -21 -1 -21 6 0 15 9 21 19 5 11 16 26
24 34 34 34 24 100 -12 78z"/>
<path d="M3050 6593 c-49 -7 -71 -14 -65 -22 2 -5 -2 -12 -11 -15 -17 -7 -44
-65 -40 -87 16 -82 54 -140 86 -132 11 3 20 10 20 16 0 6 3 8 6 5 3 -4 20 -1
37 7 42 16 142 12 189 -9 46 -20 56 -20 103 0 35 14 36 16 21 33 -9 10 -52 36
-94 57 -42 20 -85 46 -95 56 -10 10 -22 16 -26 13 -5 -3 -16 11 -25 30 -23 47
-41 56 -106 48z"/>
<path d="M5549 6556 c-34 -46 -62 -67 -144 -105 -54 -25 -125 -77 -114 -84 13
-9 79 -27 96 -27 12 0 28 6 35 13 19 17 33 20 110 22 51 1 78 -4 113 -20 38
-19 48 -20 64 -9 24 17 54 81 47 100 -3 8 -1 14 4 14 5 0 7 9 5 20 -7 34 -37
90 -49 90 -7 0 -17 5 -24 12 -6 6 -34 11 -62 12 -49 1 -53 -1 -81 -38z"/>
<path d="M1949 6348 c-20 -66 -4 -271 23 -305 6 -7 8 -13 5 -13 -4 0 5 -21 18
-47 27 -49 134 -183 147 -183 4 0 20 -13 34 -29 32 -36 183 -147 195 -143 5 1
9 -2 9 -7 0 -5 9 -11 20 -14 17 -4 20 -2 15 16 -4 12 -10 31 -15 42 -13 27
-33 78 -35 90 -2 6 -9 30 -16 55 -7 25 -14 50 -15 55 -1 6 -3 13 -4 18 -1 4
-4 12 -5 17 -1 6 -4 11 -5 13 -1 1 -4 11 -5 22 -4 30 -49 149 -58 156 -5 3 -7
8 -6 10 7 9 -64 100 -115 146 -55 50 -142 103 -171 103 -8 0 -15 -1 -16 -2z"/>
<path d="M6648 6312 c-116 -69 -232 -223 -252 -335 -1 -7 -10 -39 -20 -72 -10
-33 -20 -69 -23 -80 -8 -37 -11 -50 -13 -52 -2 -2 -3 -6 -4 -10 -5 -23 -21
-64 -43 -112 -13 -29 -21 -56 -18 -59 3 -3 5 0 5 6 0 7 6 12 14 12 8 0 22 7
30 16 9 8 16 13 16 10 0 -19 184 127 245 193 22 25 48 53 58 63 9 10 14 18 10
18 -5 0 0 7 9 14 22 16 73 119 83 166 18 82 22 169 11 222 -10 47 -29 47 -108
0z"/>
<path d="M3930 6325 c0 -6 54 -116 110 -225 18 -35 33 -70 33 -77 0 -7 4 -13
8 -13 5 0 6 -8 3 -17 -3 -10 1 -8 8 5 32 52 6 181 -50 247 -43 50 -112 99
-112 80z"/>
<path d="M4722 6307 c-40 -30 -89 -92 -109 -137 -19 -43 -21 -167 -3 -183 10
-9 11 -9 6 0 -5 10 58 161 73 173 4 3 18 30 33 60 56 119 56 128 0 87z"/>
<path d="M5253 6320 c-11 -5 -29 -22 -39 -39 -10 -17 -22 -31 -26 -31 -4 0 -8
-4 -8 -10 0 -5 8 -10 18 -10 52 -1 144 -50 179 -97 45 -61 51 -66 57 -46 24
83 15 123 -41 174 -30 28 -93 64 -93 53 0 -4 -6 -2 -12 4 -8 5 -22 6 -35 2z"/>
<path d="M3365 6300 c-53 -25 -68 -38 -94 -80 -24 -40 -26 -57 -9 -111 9 -31
14 -37 25 -28 7 6 13 17 13 25 0 7 10 20 22 28 12 9 19 16 14 16 -5 0 2 8 15
18 36 26 87 53 96 50 4 -1 23 2 41 6 l32 8 -17 28 c-9 16 -20 27 -24 24 -4 -2
-10 5 -14 16 -8 26 -47 26 -100 0z"/>
<path d="M4086 6311 c-8 -12 5 -51 15 -45 5 3 9 -1 9 -8 0 -18 79 -108 95
-108 7 0 15 -4 17 -9 2 -5 18 -12 36 -16 l33 -7 -18 44 c-9 23 -22 49 -28 57
-25 34 -84 88 -96 89 -8 0 -24 3 -36 6 -13 2 -25 1 -27 -3z"/>
<path d="M4573 6310 c-49 -11 -81 -36 -117 -93 -46 -73 -53 -97 -27 -97 12 0
21 5 21 12 0 6 3 9 6 5 12 -12 62 22 95 65 18 24 36 45 39 48 15 15 31 53 23
60 -4 4 -23 4 -40 0z"/>
<path d="M3799 6300 c-1 -5 -2 -15 -3 -20 0 -6 -6 -14 -13 -18 -8 -5 3 -21 36
-49 26 -23 67 -71 92 -107 24 -36 47 -66 50 -66 10 0 18 50 9 55 -11 7 -94
148 -97 165 -4 31 -71 67 -74 40z"/>
<path d="M4852 6301 c-11 -7 -43 -75 -41 -87 0 -4 -3 -10 -8 -13 -18 -13 -74
-105 -74 -120 2 -45 4 -51 18 -40 7 6 13 17 13 23 0 7 11 23 25 36 13 12 23
26 22 30 -2 8 80 100 85 95 2 -1 10 5 18 14 8 9 13 15 11 14 -7 -4 -31 27 -29
38 3 13 -24 20 -40 10z"/>
<path d="M3560 6291 c8 -6 11 -11 6 -11 -5 0 8 -16 28 -35 21 -19 42 -35 47
-35 5 0 9 -3 9 -7 0 -5 17 -19 38 -33 20 -14 43 -31 50 -37 7 -7 18 -13 23
-13 5 0 9 -7 9 -15 0 -8 5 -15 10 -15 17 0 11 36 -13 71 -28 42 -108 103 -155
118 -21 7 -44 15 -52 17 -13 5 -13 4 0 -5z"/>
<path d="M5109 6286 c-14 -7 -37 -16 -52 -20 -15 -3 -27 -11 -27 -16 0 -6 -6
-10 -14 -10 -29 0 -127 -132 -111 -148 4 -4 20 8 36 26 16 17 31 31 34 30 2
-2 14 5 25 15 11 9 25 17 30 17 6 0 10 5 10 10 0 6 4 10 10 10 12 0 60 48 60
61 0 6 3 8 8 6 4 -3 13 1 19 9 18 19 1 25 -28 10z"/>
<path d="M3580 6145 c0 -14 25 -27 34 -18 11 11 6 21 -14 26 -12 3 -20 0 -20
-8z"/>
<path d="M5100 6149 c0 -5 -4 -8 -9 -4 -11 6 -141 -117 -141 -134 0 -6 -4 -11
-9 -11 -6 0 -21 -10 -35 -23 -26 -24 -27 -56 -5 -114 5 -13 9 -35 9 -49 0 -13
4 -24 8 -24 15 0 86 173 75 183 -3 3 7 30 21 61 27 57 63 92 104 103 18 4 20
8 10 14 -18 12 -28 11 -28 -2z"/>
<path d="M3620 6122 c0 -5 14 -21 30 -37 17 -16 30 -35 30 -42 0 -7 5 -13 11
-13 5 0 7 -4 4 -10 -3 -5 -3 -16 2 -22 4 -7 9 -22 11 -33 4 -24 10 -48 12 -55
1 -3 2 -8 1 -12 0 -5 3 -8 7 -8 5 0 9 -6 9 -12 0 -24 36 -89 44 -81 4 4 10 24
12 43 3 19 10 48 16 63 6 16 11 32 11 36 0 12 -78 89 -85 83 -3 -3 -5 0 -5 7
0 16 -82 101 -97 101 -7 0 -13 -4 -13 -8z"/>
<path d="M4325 6069 c-5 -5 -24 -20 -42 -34 -46 -37 -55 -73 -31 -126 22 -50
79 -142 90 -147 5 -2 6 -8 2 -13 -3 -5 0 -9 5 -9 6 0 11 6 11 13 0 7 14 31 30
54 17 22 41 65 54 95 23 51 23 55 7 91 -8 20 -19 37 -23 37 -4 0 -19 10 -34
23 -27 23 -53 29 -69 16z"/>
<path d="M6290 6046 c0 -9 -3 -16 -7 -16 -5 0 -17 -18 -27 -40 -11 -22 -22
-40 -26 -40 -4 0 -21 -21 -38 -47 -28 -44 -131 -149 -207 -213 -41 -35 -144
-110 -150 -110 -2 0 -17 -12 -31 -25 -15 -14 -30 -25 -33 -25 -16 0 -83 -102
-85 -129 -1 -17 -5 -33 -8 -36 -7 -7 13 -84 33 -130 7 -16 13 -32 13 -35 1 -3
12 -27 25 -55 33 -71 38 -85 52 -130 6 -22 16 -49 20 -60 5 -11 7 -44 5 -73
-2 -42 -9 -59 -32 -83 -16 -16 -39 -32 -51 -35 -13 -4 -23 -11 -23 -17 0 -6
-3 -8 -6 -4 -3 3 -17 1 -31 -4 -76 -29 -318 -27 -347 2 -25 24 -51 9 -75 -43
-13 -29 -37 -72 -53 -96 -17 -24 -28 -45 -26 -47 20 -20 63 -32 93 -25 29 7
34 5 39 -15 3 -12 2 -36 -3 -53 -5 -17 -7 -33 -4 -36 4 -3 7 -16 8 -28 2 -29
16 -61 28 -69 22 -15 167 92 167 123 0 18 22 5 57 -33 20 -22 55 -50 77 -61
l40 -20 22 27 c25 31 36 71 38 130 1 38 4 41 36 37 6 -1 10 -8 10 -16 0 -36
149 -131 205 -131 27 0 31 5 46 49 20 64 16 108 -20 194 -15 39 -26 74 -23 77
3 3 16 -2 29 -10 13 -9 28 -13 33 -10 6 3 10 2 10 -3 0 -19 155 -35 178 -19 6
5 12 6 12 2 0 -4 6 -2 14 4 25 21 -8 94 -73 162 -53 56 -56 61 -40 75 10 9 21
14 26 11 4 -3 24 2 43 10 19 9 41 17 48 19 23 4 102 75 117 104 13 25 12 29
-4 44 -10 9 -20 16 -24 16 -3 0 -18 5 -34 12 -15 6 -31 12 -35 13 -5 2 -9 3
-10 5 -2 1 -18 3 -36 5 -19 2 -40 6 -47 9 -7 2 -16 2 -19 -2 -14 -13 -36 -9
-36 7 0 9 20 27 47 42 29 15 64 46 89 79 45 60 81 149 61 151 -7 0 -21 3 -32
6 -30 9 -129 10 -140 3 -5 -4 -24 -10 -42 -13 -18 -4 -51 -18 -73 -32 -33 -21
-41 -23 -46 -11 -6 17 12 56 26 56 6 0 10 5 10 11 0 6 34 42 75 81 41 38 75
76 75 84 0 8 4 14 8 14 18 0 67 139 88 250 10 54 12 170 2 176 -4 3 -8 -2 -8
-10z"/>
<path d="M2399 6044 c-10 -19 1 -161 16 -227 1 -7 6 -27 10 -45 4 -18 12 -35
16 -38 5 -3 7 -10 4 -15 -4 -5 -2 -9 2 -9 5 0 9 -10 10 -21 1 -12 9 -29 17
-38 9 -10 16 -22 16 -28 0 -6 14 -23 30 -36 17 -14 30 -27 30 -29 0 -2 32 -36
70 -75 40 -41 70 -80 70 -92 0 -20 -1 -20 -46 4 -26 14 -50 22 -55 19 -5 -3
-9 -1 -9 4 0 13 -93 30 -145 26 -72 -4 -86 -12 -83 -42 6 -40 38 -103 69 -134
15 -14 25 -29 21 -32 -3 -3 2 -6 11 -6 10 0 17 -4 17 -9 0 -5 20 -18 45 -30
50 -24 51 -42 2 -41 -77 1 -152 -19 -199 -52 -27 -19 -27 -20 -12 -49 8 -17
22 -33 30 -36 7 -3 14 -11 14 -17 0 -16 113 -73 163 -81 20 -4 37 -13 37 -19
0 -7 -21 -35 -47 -63 -27 -28 -54 -58 -62 -68 -17 -20 -21 -100 -6 -100 6 0
15 -3 20 -6 27 -14 140 3 195 30 26 12 42 15 48 9 10 -10 5 -37 -7 -48 -36
-31 -58 -162 -35 -206 7 -13 10 -24 7 -24 -3 0 0 -6 6 -13 6 -8 8 -16 5 -19
-7 -8 54 -2 84 7 12 4 22 12 22 18 0 6 3 8 6 4 8 -7 82 43 105 70 8 10 18 26
22 36 4 10 12 14 22 11 9 -4 14 -12 11 -19 -2 -7 -2 -16 2 -19 3 -4 6 -19 7
-34 2 -43 43 -119 63 -118 29 3 76 32 115 75 20 22 43 38 50 36 6 -3 21 -19
32 -36 23 -34 106 -89 135 -89 25 0 36 41 35 132 -1 64 4 74 30 68 26 -6 67 0
84 12 19 13 19 16 5 43 -8 16 -18 32 -23 35 -4 3 -20 33 -36 67 -32 66 -37 69
-82 52 -65 -24 -313 -29 -313 -6 0 6 -3 8 -6 4 -12 -11 -107 32 -139 63 -29
28 -32 36 -30 88 1 55 17 128 35 161 10 16 55 124 65 151 1 3 10 23 20 45 17
37 27 75 26 100 -1 91 -39 148 -145 222 -135 94 -321 260 -354 315 -8 15 -19
25 -24 22 -4 -3 -8 0 -8 6 0 12 -41 73 -52 78 -5 2 -8 9 -8 16 0 17 -26 51
-31 40z"/>
<path d="M3954 5917 c-25 -27 -46 -76 -39 -87 3 -5 2 -11 -2 -13 -7 -4 -7
-148 -1 -224 2 -27 13 -29 34 -8 9 8 12 15 9 15 -4 0 7 17 23 38 16 20 35 55
42 77 16 46 20 115 8 115 -4 0 -7 3 -6 8 4 13 -23 80 -36 91 -9 8 -18 5 -32
-12z"/>
<path d="M4694 5902 c-10 -20 -19 -41 -20 -47 -1 -5 -3 -12 -4 -15 -1 -3 -3
-15 -6 -27 -2 -12 -5 -26 -5 -30 -1 -4 0 -15 4 -23 3 -8 8 -26 11 -40 3 -14
15 -38 26 -55 11 -16 25 -39 32 -49 7 -11 21 -29 30 -39 16 -18 17 -17 24 29
23 149 -1 295 -55 323 -15 8 -21 4 -37 -27z"/>
<path d="M4150 5904 c-6 -14 -10 -31 -10 -39 0 -8 -5 -17 -10 -20 -6 -4 -8
-10 -5 -15 3 -5 0 -12 -6 -15 -5 -4 -8 -13 -5 -21 3 -7 1 -16 -4 -19 -9 -6
-37 -83 -47 -132 -15 -71 -3 -165 25 -192 16 -16 10 -21 103 91 49 59 59 80
59 130 1 55 -3 71 -38 148 -9 19 -17 42 -18 50 -2 8 -8 16 -14 18 -5 2 -8 8
-4 13 3 5 0 9 -6 9 -6 0 -8 5 -5 10 3 6 4 10 0 10 -3 0 -10 -12 -15 -26z"/>
<path d="M245 5907 c-11 -6 -8 -17 16 -52 29 -43 156 -165 172 -165 4 0 17 -9
29 -20 12 -11 28 -20 35 -20 7 0 13 -4 13 -8 0 -4 14 -16 30 -25 17 -10 30
-15 30 -12 0 4 7 -1 16 -9 8 -9 20 -14 25 -11 5 4 9 3 9 -2 0 -4 15 -14 33
-21 17 -8 44 -20 60 -28 15 -8 27 -12 27 -8 0 3 7 1 15 -6 8 -7 15 -10 15 -6
0 4 10 0 23 -8 18 -11 54 -23 97 -31 3 0 14 -6 25 -12 11 -6 22 -11 25 -11 3
0 17 -3 31 -7 14 -3 34 -8 45 -10 10 -2 19 -4 19 -5 0 -1 9 -3 20 -5 11 -2 29
-6 40 -9 69 -19 122 -32 165 -41 63 -12 86 -18 95 -23 5 -3 16 -7 25 -8 23 -3
68 -13 135 -30 33 -8 74 -17 90 -20 17 -3 50 -12 75 -21 25 -8 53 -17 63 -19
9 -2 25 -6 35 -8 9 -2 29 -9 45 -15 31 -12 35 -3 10 25 -10 11 -19 26 -21 34
-2 8 -8 18 -14 21 -5 3 -9 9 -9 13 3 22 -1 33 -11 34 -7 1 -33 6 -58 11 -61
14 -78 17 -130 27 -51 9 -59 11 -62 14 -2 1 -12 3 -23 5 -11 2 -27 5 -35 8
-73 19 -107 29 -120 34 -8 4 -17 7 -20 8 -95 29 -193 65 -207 77 -7 6 -13 7
-13 2 0 -5 -4 -4 -8 1 -8 12 -64 39 -74 37 -5 -1 -8 2 -8 7 0 5 -9 11 -20 14
-12 3 -20 14 -20 27 0 19 4 21 28 15 15 -4 47 -9 72 -11 25 -1 56 -6 70 -9 14
-4 39 -8 55 -10 17 -1 30 -4 30 -5 0 -2 41 -10 68 -12 9 -1 17 -6 17 -10 0 -4
3 -7 8 -6 9 2 60 -11 87 -22 11 -4 40 -13 65 -20 25 -7 59 -19 75 -28 17 -9
30 -14 30 -12 0 3 61 -14 95 -27 8 -3 20 -7 26 -8 5 -2 28 -11 50 -22 40 -19
40 -19 89 3 28 12 53 20 58 17 4 -2 7 1 7 7 0 6 -8 13 -17 16 -10 3 -27 10
-38 15 -30 13 -128 51 -140 54 -5 1 -23 7 -40 14 -16 7 -30 11 -30 10 0 -1
-10 3 -23 10 -13 7 -31 14 -40 16 -9 2 -48 16 -87 30 -38 15 -86 31 -105 37
-19 6 -39 14 -45 18 -5 5 -14 9 -20 9 -8 1 -80 23 -223 67 -7 2 -14 3 -17 4
-3 0 -19 7 -35 15 -17 9 -30 13 -30 9 0 -4 -6 -1 -13 5 -8 6 -16 9 -18 6 -3
-2 -23 1 -45 7 -21 6 -42 13 -46 14 -5 1 -11 3 -15 4 -5 1 -12 3 -18 5 -5 1
-12 3 -15 4 -3 1 -16 5 -30 8 -38 7 -55 11 -55 13 0 1 -11 3 -25 6 -14 2 -38
6 -55 9 -89 16 -149 25 -200 29 -22 2 -42 5 -45 6 -14 6 -183 4 -195 -3z"/>
<path d="M4514 5883 c-10 -21 -19 -41 -20 -45 -1 -5 -3 -10 -4 -13 -1 -3 -3
-8 -4 -12 -2 -5 -7 -19 -13 -33 -21 -47 -25 -65 -27 -109 0 -25 4 -50 11 -57
7 -6 10 -14 7 -17 -3 -3 3 -12 15 -19 12 -7 21 -17 21 -23 0 -5 22 -32 48 -59
26 -27 46 -51 45 -53 -2 -2 -3 -6 -3 -10 0 -4 12 10 26 31 42 62 39 138 -12
286 -3 8 -4 15 -3 15 1 0 -3 10 -10 23 -7 13 -14 31 -17 40 -9 40 -29 92 -35
92 -4 0 -15 -17 -25 -37z"/>
<path d="M8296 5913 c-2 -2 -32 -5 -67 -7 -35 -3 -64 -5 -64 -6 0 -1 -13 -4
-30 -6 -16 -2 -43 -6 -60 -9 -16 -3 -43 -7 -60 -9 -16 -3 -39 -7 -50 -10 -34
-8 -109 -26 -130 -32 -11 -3 -31 -7 -45 -10 -14 -3 -70 -19 -125 -36 -55 -18
-102 -32 -105 -33 -3 -1 -32 -9 -65 -20 -33 -10 -64 -20 -70 -21 -5 -1 -34
-12 -62 -23 -29 -12 -53 -18 -53 -15 0 4 -6 2 -13 -4 -7 -6 -40 -20 -73 -31
-69 -22 -118 -40 -159 -57 -16 -6 -59 -22 -95 -35 -36 -13 -67 -25 -70 -28 -3
-3 -12 -7 -20 -9 -38 -7 -99 -35 -94 -43 2 -4 20 -11 39 -15 20 -3 38 -10 41
-15 8 -14 52 -11 84 6 17 9 30 13 30 10 0 -4 12 0 28 9 30 16 156 62 160 58 1
-1 17 5 34 14 18 9 44 18 58 20 14 1 52 11 85 22 33 11 74 23 90 26 17 2 41 8
55 11 26 6 72 12 154 19 26 3 51 7 54 10 3 3 11 1 18 -5 11 -9 11 -13 1 -23
-10 -9 -145 -77 -212 -106 -21 -10 -169 -59 -195 -66 -8 -2 -33 -8 -55 -14
-22 -6 -47 -12 -55 -14 -9 -1 -21 -5 -28 -10 -6 -4 -16 -4 -22 -1 -5 3 -18 2
-28 -4 -10 -5 -36 -12 -58 -15 -22 -4 -51 -9 -64 -12 -14 -4 -36 -7 -49 -8
-14 -2 -30 -11 -35 -22 -6 -10 -23 -40 -38 -65 -16 -25 -28 -48 -28 -51 0 -3
19 1 43 9 23 8 49 16 57 18 8 2 35 9 60 16 25 7 50 14 55 15 6 2 24 6 40 9 17
3 55 12 85 20 30 8 70 17 89 20 19 3 37 8 41 10 3 2 17 6 31 9 28 6 186 44
212 51 46 13 85 22 135 31 17 3 32 11 32 17 0 6 3 8 6 4 3 -3 18 -1 33 5 14 6
35 11 46 12 19 1 51 12 120 41 17 6 46 18 65 26 168 64 404 240 454 337 16 30
15 32 -1 33 -44 3 -155 4 -157 2z"/>
<path d="M1764 5858 c1 -7 24 -58 50 -112 39 -82 61 -113 125 -176 61 -61 88
-81 131 -95 87 -29 210 -24 232 9 4 6 8 7 8 2 0 -5 6 -4 13 1 6 6 25 13 40 17
l29 7 -49 38 c-26 21 -52 40 -58 41 -5 1 -13 7 -17 14 -9 16 -142 106 -157
106 -6 0 -11 3 -11 8 0 4 -15 13 -32 21 -18 8 -62 27 -98 43 -87 40 -98 45
-145 59 -22 7 -45 17 -52 22 -7 5 -11 3 -9 -5z"/>
<path d="M6860 5839 c-14 -6 -34 -12 -44 -15 -11 -2 -23 -9 -26 -15 -4 -6 -11
-11 -16 -11 -7 0 -30 -8 -64 -24 -3 -1 -15 -5 -27 -9 -13 -4 -23 -11 -23 -14
0 -4 -6 -8 -12 -8 -16 0 -150 -81 -160 -97 -4 -6 -8 -8 -8 -3 0 4 -9 -1 -19
-10 -36 -34 -71 -61 -71 -57 0 3 -10 -6 -22 -19 -13 -13 -32 -28 -42 -34 -18
-10 -15 -12 22 -24 23 -7 42 -15 42 -19 0 -11 67 -23 125 -23 94 -1 159 29
241 108 40 39 78 82 84 95 5 14 28 58 50 99 22 41 40 78 40 83 0 11 -39 9 -70
-3z"/>
<path d="M4330 5590 c0 -6 -14 -28 -30 -49 -34 -42 -45 -104 -23 -126 7 -8 13
-17 13 -22 1 -4 14 -23 30 -42 l29 -35 26 28 c68 73 74 126 25 198 -35 49 -70
74 -70 48z"/>
<path d="M4855 5522 c4 -75 29 -145 62 -174 23 -20 83 -51 83 -42 0 4 6 2 13
-4 20 -17 132 47 113 65 -3 4 -17 7 -30 9 -67 7 -162 74 -206 146 -17 26 -32
48 -34 48 -2 0 -3 -22 -1 -48z"/>
<path d="M3815 5528 c-40 -68 -140 -141 -212 -154 -38 -7 -40 -11 -14 -38 22
-23 70 -41 101 -37 40 5 114 56 104 72 -3 5 0 9 5 9 15 0 43 68 46 110 1 19 4
41 6 49 8 28 -17 20 -36 -11z"/>
<path d="M3919 5433 c-8 -10 -14 -20 -14 -23 0 -3 -8 -16 -18 -30 -9 -13 -17
-20 -17 -15 0 6 -8 -3 -19 -20 -28 -46 -122 -133 -177 -164 -61 -35 -149 -37
-185 -5 -33 29 -79 101 -71 109 4 5 1 5 -5 1 -7 -4 -13 -14 -13 -22 0 -8 -5
-14 -11 -14 -6 0 -9 -7 -5 -15 3 -8 2 -15 -2 -15 -4 0 -6 -17 -6 -39 5 -118
54 -190 154 -224 43 -14 72 -9 91 16 3 5 9 7 12 5 3 -1 20 8 39 22 18 14 36
24 41 22 4 -1 7 3 7 8 0 6 15 28 34 48 19 20 35 41 34 46 0 5 7 13 16 18 9 5
16 16 16 23 0 8 5 15 10 15 6 0 10 6 10 14 0 7 7 19 15 26 9 7 13 15 10 18 -3
3 0 11 6 19 6 7 8 13 4 13 -5 0 0 9 10 20 10 11 15 20 11 20 -3 0 0 14 9 30 9
17 13 30 9 30 -4 0 -1 7 6 15 6 8 9 19 5 25 -3 5 -2 10 3 10 5 0 9 7 9 15 0
18 1 19 -18 -2z"/>
<path d="M4767 5444 c-3 -4 -2 -15 3 -25 6 -10 9 -22 9 -26 -2 -8 1 -19 21
-68 20 -52 85 -175 92 -175 4 0 8 -6 8 -12 0 -31 161 -178 194 -178 8 0 17 -4
20 -9 7 -10 44 -3 64 12 6 5 12 6 12 3 0 -7 55 28 76 49 26 25 62 123 55 149
-1 5 -4 30 -6 55 -2 25 -9 47 -15 49 -5 2 -7 9 -4 14 4 7 2 8 -4 4 -7 -4 -12
-12 -12 -17 0 -6 -16 -31 -35 -56 -19 -25 -35 -42 -35 -37 0 5 -4 3 -9 -5 -5
-8 -31 -15 -63 -17 -86 -6 -161 41 -284 176 -22 25 -43 52 -47 60 -20 40 -34
59 -40 54z"/>
<path d="M4002 5433 c-6 -3 -9 -9 -6 -14 3 -6 0 -16 -6 -24 -7 -8 -10 -15 -7
-15 4 0 -1 -19 -9 -42 -9 -24 -17 -51 -19 -60 -2 -9 -11 -27 -19 -41 -9 -13
-14 -26 -11 -29 3 -3 -1 -11 -10 -18 -8 -7 -15 -18 -15 -25 0 -8 -3 -15 -7
-17 -5 -1 -18 -18 -31 -35 l-23 -33 27 -56 c14 -31 30 -52 34 -47 19 21 65
122 62 136 -1 4 2 7 7 7 5 0 12 10 16 23 4 12 8 24 10 27 1 3 5 13 9 22 4 9 9
22 10 30 2 7 6 20 10 30 22 49 5 190 -22 181z"/>
<path d="M4677 5424 c-10 -35 -21 -89 -19 -96 1 -3 4 -20 7 -37 3 -17 15 -57
27 -89 12 -31 23 -59 23 -62 3 -17 77 -160 83 -160 4 0 19 19 33 43 25 40 25
44 11 75 -9 18 -19 32 -24 32 -4 0 -8 6 -8 13 0 7 -9 23 -20 35 -12 12 -18 22
-14 22 3 0 0 10 -9 23 -21 32 -55 133 -61 180 -4 28 -23 42 -29 21z"/>
<path d="M1960 5411 c0 -3 -13 -7 -30 -7 -34 -2 -80 -28 -80 -47 0 -22 83
-113 115 -127 63 -27 101 -40 125 -44 14 -3 39 -8 55 -11 46 -10 126 -12 131
-3 3 5 9 6 13 3 5 -2 30 3 55 11 l47 16 -21 23 c-12 12 -36 53 -54 90 l-33 68
-100 2 c-55 1 -106 6 -114 11 -15 9 -25 11 -76 17 -18 3 -33 1 -33 -2z"/>
<path d="M6650 5402 c-30 -8 -94 -15 -141 -16 -47 -2 -90 -6 -96 -9 -5 -3 -18
-28 -28 -54 -9 -26 -30 -64 -46 -84 l-28 -36 27 -13 c48 -22 159 -33 180 -17
6 5 12 6 12 2 0 -4 6 -2 14 4 10 8 16 9 21 1 4 -6 12 -7 23 -1 9 5 19 9 22 9
17 1 71 17 106 33 42 19 134 111 134 134 0 16 -26 38 -48 41 -10 2 -35 7 -57
12 -28 6 -57 4 -95 -6z"/>
<path d="M4155 5343 c-22 -25 -38 -46 -35 -47 3 -1 -5 -12 -18 -26 -22 -24
-45 -87 -45 -125 0 -36 21 -69 77 -124 35 -34 56 -49 56 -39 0 9 -4 18 -9 20
-10 3 -24 85 -23 123 2 31 7 46 31 100 25 53 33 128 16 151 -8 11 -18 4 -50
-33z"/>
<path d="M4496 5382 c-16 -26 -9 -118 13 -164 12 -26 23 -53 25 -60 1 -7 5
-19 9 -25 5 -7 6 -17 2 -22 -3 -5 -7 -22 -10 -38 -7 -47 -11 -62 -18 -69 -10
-10 -9 -24 2 -24 10 0 83 74 108 110 26 38 13 133 -24 178 -10 11 -29 35 -43
53 -53 69 -57 73 -64 61z"/>
<path d="M646 5353 c-3 -3 -61 -8 -128 -10 -164 -4 -251 -13 -265 -27 -7 -7
103 -76 122 -76 8 0 15 -5 15 -10 0 -10 48 -35 62 -32 3 1 12 -5 18 -13 7 -8
18 -15 25 -15 7 0 30 -9 52 -20 33 -17 87 -41 103 -45 11 -2 86 -27 100 -32 8
-3 20 -7 25 -8 6 0 24 -4 40 -9 101 -25 111 -27 235 -41 73 -9 555 -6 633 4 5
1 6 5 3 10 -3 5 2 12 11 15 15 6 15 8 3 16 -9 6 -17 5 -22 -3 -4 -7 -8 -7 -8
-2 0 7 -27 10 -67 9 -38 0 -72 1 -77 4 -5 3 -30 6 -55 8 -50 3 -122 11 -161
18 -14 2 -45 7 -70 11 -55 8 -77 12 -112 19 -16 3 -38 8 -50 10 -61 10 -108
28 -108 40 0 8 6 16 13 18 52 18 429 13 517 -7 14 -3 45 -8 68 -11 24 -3 54
-9 67 -14 13 -5 25 -7 27 -5 2 2 25 -2 51 -10 26 -8 47 -11 47 -8 0 3 6 0 14
-6 10 -9 16 -7 27 5 10 13 10 17 0 24 -8 4 -21 7 -30 5 -9 -1 -19 2 -22 7 -3
5 -20 10 -38 13 -18 2 -39 9 -47 16 -8 6 -14 9 -14 6 0 -3 -25 3 -55 13 -30
10 -55 17 -55 15 0 -2 -29 5 -65 15 -36 10 -65 17 -65 15 0 -3 -12 0 -26 6
-15 5 -43 12 -63 15 -20 3 -47 7 -61 10 -14 2 -41 7 -60 9 -19 3 -51 8 -70 11
-80 14 -198 24 -341 28 -64 2 -121 6 -126 9 -6 4 -13 4 -17 0z"/>
<path d="M8048 5354 c-3 -2 -63 -7 -134 -10 -133 -5 -199 -9 -269 -19 -76 -10
-140 -17 -162 -19 -13 0 -23 -3 -23 -6 0 -4 -10 -7 -22 -8 -35 -2 -70 -8 -103
-15 -61 -15 -80 -19 -95 -22 -8 -1 -22 -4 -30 -7 -55 -18 -89 -28 -120 -33
-19 -3 -39 -10 -46 -15 -6 -6 -14 -7 -17 -3 -4 3 -13 0 -21 -6 -8 -7 -20 -10
-25 -7 -5 4 -12 2 -15 -3 -3 -5 -22 -12 -41 -15 -19 -4 -35 -11 -35 -17 0 -6
-5 -7 -12 -3 -7 4 -8 3 -4 -4 10 -16 43 -15 113 3 32 8 69 17 83 19 14 3 25 5
25 6 0 1 16 3 35 5 19 1 51 6 70 10 57 12 136 17 290 17 200 0 234 -3 238 -24
2 -13 -8 -20 -40 -28 -24 -6 -50 -13 -58 -15 -8 -2 -28 -6 -45 -9 -16 -3 -46
-8 -65 -12 -19 -3 -47 -8 -62 -10 -16 -2 -40 -6 -55 -8 -111 -18 -192 -25
-316 -30 -48 -2 -90 -6 -93 -8 -2 -3 5 -13 16 -23 15 -13 40 -19 93 -22 122
-6 510 -5 552 1 122 17 154 23 230 42 33 8 83 22 110 32 28 9 52 17 55 17 10
2 106 47 153 71 26 14 47 22 47 19 0 -4 12 2 28 13 15 10 53 32 85 48 56 28
100 63 81 65 -5 0 -18 2 -29 5 -50 9 -119 15 -226 18 -64 2 -121 6 -126 9 -6
4 -12 4 -15 1z"/>
<path d="M4271 5223 c-25 -40 -52 -109 -44 -116 2 -3 6 -11 7 -19 2 -7 7 -28
11 -47 11 -46 86 -124 111 -115 32 12 64 47 85 94 21 45 31 117 20 135 -3 6
-6 12 -7 15 -2 16 -29 60 -36 60 -4 0 -8 7 -8 15 0 19 -19 19 -44 0 -15 -11
-22 -12 -34 -3 -24 21 -37 17 -61 -19z"/>
<path d="M1997 5123 c-3 -2 -19 -5 -36 -5 -17 -1 -31 -5 -31 -10 0 -4 -3 -7
-7 -6 -13 5 -93 -25 -93 -34 0 -4 -6 -8 -13 -8 -15 0 -77 -61 -77 -76 0 -12
93 -67 150 -88 46 -16 174 -29 185 -18 6 7 26 11 72 14 18 2 33 5 33 8 0 3 9
6 20 7 25 2 90 33 90 43 0 4 -9 18 -19 31 -10 14 -28 40 -38 59 -14 25 -32 39
-66 51 -26 10 -47 15 -47 12 0 -3 -6 0 -13 6 -8 6 -16 8 -19 6 -3 -3 -24 -2
-46 3 -23 6 -43 8 -45 5z"/>
<path d="M6679 5126 c-2 -3 -20 -7 -39 -9 -19 -3 -35 -6 -35 -7 0 -1 -12 -3
-26 -4 -14 -2 -35 -6 -45 -11 -21 -9 -30 -12 -43 -14 -5 0 -15 -16 -22 -33 -7
-18 -25 -46 -40 -62 -20 -22 -24 -32 -16 -41 11 -10 69 -37 92 -42 6 -1 21 -4
35 -8 23 -5 81 -13 135 -18 30 -4 127 13 140 23 5 4 15 9 20 9 20 2 114 54
119 66 16 43 -109 123 -219 141 -22 3 -43 8 -46 10 -3 2 -8 2 -10 0z"/>
<path d="M3992 4978 c-15 -24 -33 -56 -39 -73 -6 -16 -14 -39 -19 -50 -18 -49
-24 -94 -12 -101 4 -3 6 -10 3 -15 -4 -5 -1 -9 4 -9 6 0 11 -5 11 -11 0 -7 26
-43 57 -81 l57 -70 23 53 c13 30 33 63 43 74 19 20 47 90 45 110 -6 44 -19 85
-27 85 -5 0 -7 4 -4 9 3 5 -6 21 -19 35 -14 15 -25 30 -25 33 0 6 -26 28 -52
43 -14 8 -22 2 -46 -32z"/>
<path d="M4645 5000 c-60 -39 -105 -119 -106 -187 -2 -63 2 -74 34 -113 15
-17 36 -52 47 -76 11 -24 25 -44 30 -44 11 0 88 97 116 147 17 32 19 45 11 83
-10 49 -56 152 -84 187 l-18 23 -30 -20z"/>
<path d="M3727 4946 c-43 -44 -55 -62 -47 -71 6 -7 7 -16 3 -18 -13 -8 -7
-110 7 -138 8 -13 13 -26 13 -29 -1 -3 5 -20 13 -39 8 -18 14 -36 14 -40 0 -3
7 -15 15 -25 14 -18 15 -18 34 5 11 13 20 28 21 33 0 5 7 18 17 28 9 10 17 33
18 50 2 18 6 40 9 49 13 31 12 150 -1 161 -7 6 -13 17 -13 24 0 8 -4 14 -10
14 -5 0 -9 3 -8 8 2 4 -4 16 -12 27 -15 20 -17 18 -73 -39z"/>
<path d="M4896 4981 c-9 -9 -16 -22 -16 -28 0 -6 -8 -21 -18 -34 -14 -19 -17
-39 -15 -94 1 -38 4 -77 6 -85 15 -59 23 -80 46 -115 14 -22 29 -47 32 -55 4
-10 15 3 32 40 56 123 58 127 61 200 2 65 -7 106 -23 103 -6 -2 -11 4 -11 13
0 8 -4 12 -10 9 -5 -3 -10 0 -11 7 0 7 -13 23 -28 35 -27 22 -29 22 -45 4z"/>
<path d="M1655 4932 c-7 -8 -105 -14 -247 -16 -54 0 -98 -3 -98 -6 0 -4 -47
-6 -105 -6 -58 1 -105 -2 -105 -5 0 -3 -26 -5 -57 -6 -32 0 -71 -3 -88 -6 -16
-3 -42 -8 -57 -11 -16 -4 -39 -8 -52 -10 -13 -2 -34 -9 -45 -16 -12 -6 -21 -8
-21 -4 0 3 -6 2 -12 -3 -7 -6 -26 -14 -43 -18 -37 -10 -34 -9 -68 -23 -16 -7
-31 -12 -34 -12 -3 0 -26 -11 -52 -24 -26 -12 -63 -29 -84 -35 -20 -7 -37 -16
-37 -21 0 -4 -9 -10 -20 -13 -22 -6 -28 -27 -7 -28 15 -1 82 -14 97 -19 3 -1
21 -2 40 -2 19 1 42 -2 50 -5 52 -18 281 -18 495 1 90 9 169 16 205 20 121 14
148 17 175 22 34 5 77 12 120 19 17 2 44 7 60 10 17 4 39 8 50 9 12 1 27 6 34
10 7 4 15 6 17 3 7 -7 99 26 119 43 9 7 21 23 27 34 6 12 7 18 3 14 -4 -4 -24
0 -45 8 -35 14 -50 14 -110 -1 -14 -4 -32 -8 -40 -10 -8 -1 -22 -5 -31 -9 -9
-4 -20 -6 -25 -5 -5 1 -17 -1 -27 -6 -10 -4 -20 -5 -23 -2 -4 3 -16 2 -28 -3
-31 -11 -128 -23 -203 -24 -35 -1 -63 -3 -63 -7 0 -3 -37 -4 -82 -2 -46 1 -95
3 -110 3 -34 0 -47 19 -22 34 25 15 92 36 128 42 17 2 33 9 37 15 5 8 8 8 13
0 4 -6 12 -9 17 -6 11 7 42 14 89 20 19 3 53 7 75 11 22 3 65 7 95 9 30 2 55
4 55 5 0 1 19 3 43 5 52 2 59 8 28 23 -13 6 -27 8 -31 4z"/>
<path d="M7000 4920 c-8 -5 -10 -10 -5 -11 6 0 26 -2 45 -4 19 -3 55 -6 80 -7
25 -2 50 -6 55 -9 6 -3 24 -5 40 -3 17 1 37 0 45 -3 8 -3 33 -7 55 -9 40 -4
80 -11 80 -14 0 -1 9 -3 20 -4 40 -5 130 -29 141 -37 6 -5 13 -7 16 -4 3 3 13
-4 23 -15 10 -11 14 -20 9 -21 -5 0 -20 -3 -34 -6 -74 -17 -424 9 -547 41 -13
3 -31 8 -41 10 -9 2 -37 9 -61 16 -36 9 -51 9 -92 -6 l-49 -18 23 -24 c23 -25
48 -38 95 -47 31 -7 55 -13 62 -15 3 -1 9 -2 14 -1 4 1 22 -3 40 -9 17 -5 47
-12 66 -15 19 -3 53 -8 75 -11 22 -4 54 -8 70 -9 17 -2 30 -4 30 -5 0 -2 18
-4 110 -14 28 -3 70 -7 95 -10 169 -19 500 -36 500 -26 0 3 28 6 63 7 64 3
112 7 182 19 22 3 49 7 59 8 11 2 21 7 23 12 5 14 -206 118 -262 130 -11 2
-29 8 -40 13 -20 9 -56 22 -65 23 -3 0 -16 5 -30 10 -14 5 -34 12 -45 14 -11
2 -31 7 -45 10 -68 16 -219 27 -510 36 -69 3 -134 8 -144 13 -15 7 -17 5 -11
-6 7 -11 6 -12 -6 -2 -12 10 -18 10 -27 1 -7 -7 -12 -8 -12 -2 0 13 -71 17
-90 4z"/>
<path d="M3450 4877 c0 -39 72 -213 95 -230 11 -8 67 52 59 65 -3 4 -2 8 3 8
9 0 10 136 0 146 -3 3 -30 7 -59 8 -29 1 -63 6 -75 10 -17 5 -23 3 -23 -7z"/>
<path d="M5227 4884 c-3 -3 -35 -7 -72 -9 -37 -2 -69 -6 -72 -8 -6 -7 -10
-107 -4 -113 3 -2 6 -12 7 -21 4 -24 26 -63 36 -63 4 0 8 -7 8 -15 0 -51 53
21 95 130 28 71 29 126 2 99z"/>
<path d="M2296 4862 c-3 -2 -27 -6 -53 -7 -26 -2 -48 -4 -48 -5 0 -1 -33 -8
-67 -13 -10 -2 -21 -6 -24 -10 -4 -4 -14 -7 -23 -7 -31 0 -118 -48 -149 -81
-38 -41 -76 -114 -67 -129 9 -14 47 -29 94 -36 20 -3 39 -8 43 -10 4 -2 9 0
12 4 3 5 15 8 28 7 13 -1 28 2 35 7 7 5 17 7 22 4 5 -4 12 -2 16 4 3 5 15 10
26 10 22 0 108 38 127 56 6 7 21 16 32 19 11 3 19 12 17 18 -1 7 3 11 9 10 7
-1 17 11 24 27 7 17 16 30 19 30 4 0 13 16 21 35 8 19 18 35 23 35 23 0 -3 24
-29 26 -16 2 -41 5 -56 7 -15 2 -30 2 -32 -1z"/>
<path d="M6367 4863 c-3 -2 -51 -10 -80 -12 -17 -2 61 -127 101 -160 53 -45
117 -81 142 -81 10 0 21 -4 24 -9 11 -18 186 -39 186 -22 0 4 12 6 27 5 14 0
37 4 50 10 29 13 25 41 -15 100 -53 78 -160 135 -287 152 -22 3 -51 7 -65 10
-42 7 -80 10 -83 7z"/>
<path d="M4299 4839 c-26 -11 -52 -31 -59 -44 -27 -51 -21 -68 73 -210 l38
-58 15 28 c7 15 25 40 39 57 14 16 25 33 25 38 0 5 6 15 14 23 19 19 37 85 25
93 -5 3 -9 13 -9 23 0 11 -19 27 -53 44 -29 15 -54 27 -57 27 -3 -1 -26 -10
-51 -21z"/>
<path d="M1725 4649 c-16 -5 -50 -11 -75 -14 -45 -5 -83 -11 -130 -19 -14 -3
-43 -7 -65 -11 -22 -3 -51 -7 -65 -10 -44 -9 -69 -15 -90 -20 -46 -12 -66 -16
-75 -18 -5 -2 -14 -5 -20 -8 -5 -4 -23 -9 -40 -13 -38 -9 -138 -57 -147 -71
-4 -5 -8 -6 -8 -2 0 11 -105 -63 -157 -110 -61 -55 -143 -154 -137 -164 3 -5
1 -9 -5 -9 -6 0 -17 -13 -25 -28 -13 -26 -13 -29 2 -31 61 -7 227 0 227 9 0 1
34 7 78 13 13 2 28 7 35 11 7 4 16 5 21 1 5 -3 12 -1 16 5 3 5 13 10 22 10 8
0 29 6 46 14 18 7 48 19 67 26 32 12 129 55 225 100 71 33 140 63 145 62 3 0
13 7 23 15 9 9 17 13 17 8 0 -4 11 0 25 9 14 9 25 14 25 11 0 -3 10 0 23 7 12
7 24 13 27 13 3 1 25 11 50 22 25 11 56 24 70 29 14 4 27 9 30 10 3 1 16 5 30
10 24 7 23 8 -15 24 -43 18 -38 19 -185 -43 -14 -6 -27 -11 -30 -12 -3 0 -41
-13 -85 -27 -88 -30 -203 -59 -250 -63 -16 -1 -46 -5 -66 -9 -50 -8 -70 14
-35 38 99 64 272 149 306 149 3 0 30 11 60 25 30 13 65 26 76 28 27 5 94 33
94 39 0 3 -1 5 -2 4 -2 0 -16 -5 -33 -10z"/>
<path d="M6990 4628 c30 -11 66 -22 80 -24 13 -3 29 -9 35 -13 5 -5 28 -14 50
-21 22 -7 46 -18 54 -24 8 -6 17 -10 20 -10 11 2 36 -7 86 -33 28 -14 70 -36
95 -49 60 -30 96 -64 80 -74 -7 -4 -25 -6 -39 -4 -14 2 -46 7 -71 10 -68 8
-85 11 -85 14 0 1 -11 4 -25 5 -14 2 -32 5 -40 8 -8 2 -28 7 -45 12 -16 4 -36
13 -44 19 -8 6 -16 10 -18 9 -3 -3 -5 -3 -20 2 -52 14 -71 21 -111 40 -69 33
-115 46 -143 41 -13 -3 -25 -5 -26 -7 -2 -1 -7 -2 -12 -3 -5 0 -13 -4 -17 -8
-7 -7 9 -12 29 -9 4 0 7 -3 7 -9 0 -5 3 -9 8 -8 6 1 34 -8 82 -29 8 -3 17 -7
20 -8 3 -1 19 -8 35 -15 17 -7 35 -14 40 -15 6 -2 33 -13 60 -26 28 -13 52
-23 55 -24 3 -1 28 -11 57 -24 29 -13 55 -22 59 -21 4 1 10 -2 13 -7 3 -5 24
-17 46 -27 22 -10 65 -30 95 -45 30 -14 57 -26 60 -27 5 -1 14 -4 75 -27 17
-7 32 -12 35 -13 3 0 12 -4 20 -7 17 -8 123 -36 160 -43 14 -3 36 -7 50 -10
39 -9 189 -10 211 -2 18 7 17 11 -22 68 -22 33 -45 60 -50 60 -5 0 -9 4 -9 10
0 5 -8 19 -17 31 -25 30 -159 139 -171 139 -6 0 -12 4 -14 8 -6 15 -132 79
-193 97 -33 10 -65 22 -71 27 -6 4 -14 5 -17 2 -3 -3 -12 -2 -19 2 -7 4 -19 9
-28 10 -8 1 -28 5 -45 9 -16 4 -37 8 -45 9 -8 1 -37 6 -65 11 -27 4 -59 9 -70
10 -11 1 -20 3 -20 5 0 2 -32 6 -92 11 -24 2 -43 6 -43 9 0 3 -19 6 -43 6
l-42 2 55 -20z"/>
<path d="M5022 4578 c-17 -34 -30 -63 -28 -65 7 -7 80 34 97 53 16 18 15 21
-10 47 l-26 27 -33 -62z"/>
<path d="M3612 4607 l-22 -24 30 -27 c40 -35 106 -62 81 -33 -6 8 -8 17 -4 20
3 4 2 7 -3 7 -6 0 -18 18 -28 40 -10 22 -21 40 -25 40 -4 0 -17 -10 -29 -23z"/>
<path d="M3877 4608 c-9 -13 -39 -53 -66 -91 -27 -37 -48 -73 -47 -80 14 -64
109 -229 146 -252 17 -11 40 15 68 75 14 30 26 57 27 60 24 70 23 131 -1 168
-14 21 -55 74 -109 140 -1 1 -9 -8 -18 -20z"/>
<path d="M4753 4567 c-103 -130 -104 -152 -25 -315 19 -40 39 -75 43 -77 10
-7 82 81 110 135 13 24 31 65 40 90 l15 45 -35 50 c-20 28 -39 52 -43 53 -5 2
-8 9 -8 15 -1 7 -11 25 -24 40 l-23 29 -50 -65z"/>
<path d="M6322 4618 c-17 -17 -36 -20 -128 -21 -68 -2 -80 -5 -81 -19 -3 -28
121 -133 167 -142 3 -1 10 -4 15 -8 25 -15 105 -31 158 -30 61 1 111 22 131
55 14 24 -21 54 -124 104 -41 20 -87 44 -101 54 -19 14 -29 15 -37 7z"/>
<path d="M2335 4611 c-6 -5 -44 -26 -85 -47 -41 -21 -76 -42 -78 -46 -2 -5 -9
-8 -16 -8 -7 0 -21 -9 -32 -21 -23 -26 -12 -45 41 -73 39 -20 145 -31 145 -14
0 5 6 8 13 7 22 -4 99 22 138 47 21 13 43 24 49 24 6 0 8 5 5 10 -3 6 1 10 10
10 9 0 14 3 12 8 -2 4 4 15 15 25 10 9 18 14 19 10 1 -10 17 28 18 42 1 6 -30
10 -76 9 -43 -1 -82 1 -88 5 -5 3 -14 6 -20 7 -5 1 -21 5 -35 8 -14 4 -30 3
-35 -3z"/>
<path d="M4157 4594 c-11 -14 -20 -31 -21 -37 -7 -30 -19 -73 -25 -82 -10 -17
-8 -139 2 -152 5 -7 7 -13 4 -13 -9 0 35 -73 65 -108 15 -18 33 -32 41 -32 13
0 53 76 63 122 3 12 8 34 11 48 11 51 9 100 -7 128 -23 45 -100 152 -108 152
-4 0 -15 -12 -25 -26z"/>
<path d="M4504 4613 c-6 -5 -15 -18 -19 -31 -4 -13 -9 -21 -12 -18 -6 6 -52
-64 -68 -104 -15 -36 -7 -153 13 -184 4 -6 7 -14 8 -18 1 -5 3 -10 4 -13 1 -3
3 -8 5 -12 6 -24 25 -62 33 -67 5 -3 26 13 47 34 22 22 35 40 30 40 -6 0 -5 4
1 8 29 19 49 79 49 150 0 39 -2 72 -5 72 -3 0 -7 12 -8 26 -1 15 -6 32 -12 39
-5 6 -8 14 -5 17 9 9 -50 68 -61 61z"/>
<path d="M3525 4487 c-22 -11 -46 -23 -54 -27 -15 -6 -19 -21 -24 -80 -4 -43
-36 -117 -54 -124 -7 -3 -24 -1 -38 4 -29 11 -30 -3 -2 -60 26 -55 44 -113 41
-132 -1 -10 2 -20 7 -24 5 -3 9 -20 9 -38 0 -18 3 -36 7 -40 4 -4 15 -31 24
-59 9 -28 20 -52 26 -54 9 -3 37 48 34 62 -1 3 5 13 14 21 8 9 15 22 15 30 0
8 7 26 16 39 9 14 13 25 9 25 -5 0 -1 8 8 18 8 9 16 21 15 25 0 4 19 46 42 94
23 47 43 90 44 97 1 6 4 16 7 21 5 10 4 70 -2 129 -3 25 -33 53 -94 88 -5 3
-28 -3 -50 -15z"/>
<path d="M5097 4486 c-14 -13 -28 -22 -31 -19 -2 3 -12 -7 -21 -21 -17 -26
-28 -149 -16 -171 3 -5 6 -12 7 -15 5 -28 57 -134 68 -142 6 -4 7 -8 2 -8 -5
0 -2 -7 5 -16 7 -9 14 -23 15 -32 2 -8 6 -18 11 -21 4 -3 9 -11 10 -18 1 -6
17 -42 34 -80 18 -37 32 -73 31 -80 -2 -6 2 -14 7 -18 10 -5 33 27 37 53 1 8
6 21 10 30 9 22 12 31 19 67 3 17 11 48 17 70 5 22 12 49 14 59 2 11 15 43 29
72 14 28 25 54 25 58 0 3 -13 4 -30 1 -22 -4 -34 0 -50 17 -11 12 -21 25 -21
30 -2 9 -2 10 -13 50 -5 15 -9 44 -10 65 -2 20 -9 40 -17 44 -8 3 -34 16 -57
28 -24 11 -45 21 -46 21 -2 0 -15 -11 -29 -24z"/>
<path d="M1994 4464 c-18 -14 -18 -15 4 -4 12 6 22 13 22 15 0 8 -5 6 -26 -11z"/>
<path d="M1950 4450 c-9 -6 -10 -10 -3 -10 6 0 15 5 18 10 8 12 4 12 -15 0z"/>
<path d="M6730 4451 c0 -6 6 -11 13 -11 7 0 29 -9 50 -20 20 -11 37 -17 37
-14 0 4 6 2 13 -4 6 -5 49 -29 95 -53 45 -23 82 -46 82 -51 0 -4 5 -8 11 -8 6
0 17 -6 24 -12 30 -27 45 -39 45 -35 0 3 20 -16 45 -41 25 -24 45 -46 45 -48
0 -4 27 -38 48 -59 13 -14 16 -38 6 -47 -6 -7 -139 46 -159 62 -7 5 -15 7 -18
3 -4 -3 -7 -1 -7 5 0 7 -4 12 -10 12 -18 0 -241 143 -284 182 -11 10 -26 18
-33 18 -7 0 -13 4 -13 9 0 9 -71 61 -84 61 -5 0 9 -14 30 -31 21 -17 41 -34
44 -37 3 -4 28 -27 55 -51 57 -50 245 -222 288 -263 16 -16 32 -28 37 -28 5 0
10 -4 12 -9 5 -12 126 -112 174 -143 75 -48 196 -92 289 -103 17 -2 42 -6 56
-8 45 -9 52 4 33 54 -10 24 -22 47 -27 50 -5 3 -8 9 -8 13 3 22 -1 34 -17 52
-9 10 -22 30 -28 44 -26 58 -151 193 -229 247 -40 28 -185 104 -207 108 -10 2
-34 11 -55 20 -21 10 -49 22 -63 27 -14 6 -37 17 -52 25 -16 8 -28 11 -28 7 0
-3 -7 -1 -15 6 -8 6 -19 9 -25 5 -5 -3 -10 -2 -10 3 0 12 -56 33 -64 25 -3 -4
-6 -1 -6 5 0 7 -3 11 -7 10 -8 -1 -57 17 -74 28 -5 3 -9 0 -9 -5z"/>
<path d="M2538 4443 c-10 -2 -18 -9 -18 -14 0 -5 -4 -8 -8 -6 -12 3 -102 -45
-102 -55 0 -4 -6 -8 -14 -8 -19 0 -74 -71 -80 -101 -3 -13 -5 -24 -6 -24 -1 0
-3 -8 -5 -17 -6 -32 29 -51 82 -43 63 9 180 64 166 78 -3 4 -2 7 4 7 5 0 24
17 41 39 l31 39 -19 38 c-11 21 -18 40 -15 42 7 8 -16 32 -29 31 -6 -1 -19 -3
-28 -6z"/>
<path d="M6114 4442 c2 -4 -6 -30 -19 -57 l-24 -49 42 -52 c23 -29 48 -53 55
-54 6 0 12 -4 12 -10 0 -5 9 -10 19 -10 11 0 21 -5 23 -11 2 -5 15 -12 28 -14
14 -2 37 -6 51 -8 14 -2 31 -7 37 -11 7 -4 12 -2 12 4 0 6 4 9 9 6 4 -3 15 2
23 12 14 15 14 23 2 62 -8 25 -20 52 -27 61 -21 26 -120 95 -169 117 -48 22
-83 29 -74 14z"/>
<path d="M1843 4406 c-46 -18 -83 -31 -83 -28 0 3 -7 -3 -16 -14 -8 -10 -12
-12 -8 -4 7 12 5 13 -8 3 -8 -7 -18 -10 -21 -6 -4 3 -7 0 -7 -7 0 -7 -3 -10
-7 -7 -3 4 -11 3 -17 -1 -6 -5 -33 -17 -61 -27 -91 -33 -217 -96 -274 -137
-72 -52 -141 -118 -141 -135 0 -7 -4 -13 -9 -13 -13 0 -74 -92 -111 -170 -40
-83 -52 -123 -38 -131 7 -4 15 -6 19 -4 3 3 26 7 50 10 24 3 56 7 71 9 29 4
97 25 113 35 6 3 18 7 27 8 9 1 32 12 50 23 18 11 42 24 53 29 38 17 245 197
413 359 24 23 46 42 49 42 4 0 39 32 147 133 56 52 34 46 -30 -8 -28 -25 -57
-45 -62 -45 -6 0 -12 -4 -14 -9 -4 -13 -179 -130 -253 -170 -33 -18 -64 -37
-70 -41 -5 -5 -14 -9 -20 -10 -5 -1 -21 -6 -35 -11 -42 -16 -50 -18 -58 -20
-4 0 -15 -5 -24 -10 -33 -18 -25 16 17 71 49 63 128 139 174 166 17 10 31 22
31 27 0 4 4 6 9 3 5 -3 14 1 21 9 7 8 17 15 23 15 5 0 26 10 46 22 20 13 38
23 41 24 3 0 22 8 42 17 21 10 42 17 48 17 5 0 10 5 10 10 0 13 8 15 -87 -24z"/>
<path d="M2826 4354 c-16 -8 -54 -22 -85 -30 -56 -17 -119 -59 -120 -81 -1 -6
-10 -15 -21 -18 -11 -4 -18 -10 -15 -15 3 -5 0 -12 -7 -17 -16 -10 -58 -69
-58 -82 0 -5 -5 -11 -11 -13 -6 -2 -11 -19 -12 -38 -2 -33 -1 -34 38 -33 22 0
49 4 60 8 63 23 83 31 114 50 51 30 140 123 147 153 4 15 9 32 13 37 9 17 7
76 -5 85 -6 6 -22 3 -38 -6z"/>
<path d="M5833 4353 c-21 -55 18 -154 85 -214 23 -20 47 -39 54 -43 7 -3 27
-15 43 -25 17 -11 37 -20 45 -20 8 -1 26 -7 40 -14 23 -11 37 -12 93 -8 21 1
19 42 -4 69 -7 9 -20 29 -28 44 -8 15 -41 57 -75 94 -53 58 -70 70 -131 91
-39 13 -74 25 -80 26 -5 1 -16 6 -23 10 -7 5 -15 2 -19 -10z"/>
<path d="M3155 4347 c-13 -15 -16 -41 -17 -152 0 -74 6 -170 12 -170 1 0 3 -8
5 -18 2 -10 7 -26 11 -35 4 -9 8 -21 8 -27 1 -5 13 -35 28 -65 40 -81 103
-146 165 -168 62 -24 79 -17 62 24 -7 16 -13 34 -15 39 -1 6 -7 24 -14 40 -6
17 -11 30 -10 30 1 0 -3 12 -9 28 -6 15 -13 38 -15 50 -11 49 -15 65 -29 113
-8 27 -15 51 -15 54 -6 51 -130 271 -152 270 -3 -1 -9 -6 -15 -13z"/>
<path d="M5509 4342 c-24 -26 -61 -82 -54 -82 3 0 -3 -10 -14 -22 -11 -11 -18
-25 -15 -30 3 -4 1 -8 -4 -8 -5 0 -15 -21 -22 -47 -7 -27 -16 -52 -19 -58 -3
-5 -6 -14 -8 -20 -1 -5 -12 -46 -24 -90 -12 -44 -22 -86 -22 -92 0 -7 -4 -13
-9 -13 -5 0 -7 -4 -3 -9 3 -5 0 -22 -6 -38 -36 -90 -42 -107 -43 -123 -2 -38
116 13 164 71 34 41 90 131 94 153 2 6 8 30 15 53 34 120 31 360 -4 369 -6 2
-17 -5 -26 -14z"/>
<path d="M2105 4317 c-116 -90 -255 -208 -310 -262 -67 -68 -149 -161 -172
-198 -15 -23 -30 -44 -33 -47 -16 -15 -60 -113 -75 -165 -9 -33 -21 -67 -25
-75 -4 -8 -6 -23 -4 -32 1 -10 -1 -18 -5 -18 -10 0 -8 -41 2 -56 5 -8 26 -6
74 7 38 11 77 22 87 24 11 2 22 8 25 13 3 4 27 18 53 32 26 13 45 26 43 29 -3
2 8 12 24 22 32 19 94 93 184 216 31 44 66 89 78 101 11 12 18 22 15 22 -5 0
8 14 123 147 41 47 67 84 61 88 -6 3 -8 10 -5 15 3 4 -4 6 -15 3 -12 -3 -19
-8 -16 -10 2 -2 -25 -32 -61 -66 -36 -34 -74 -71 -84 -81 -11 -11 -19 -16 -19
-10 0 5 -5 1 -11 -8 -18 -32 -214 -169 -271 -191 -24 -9 -43 17 -25 35 8 8 22
29 32 48 20 39 170 192 179 183 3 -4 6 2 6 12 0 10 3 15 6 12 4 -4 23 6 43 21
65 51 181 122 222 138 17 6 43 53 35 61 -3 3 -22 5 -43 5 -21 0 -42 3 -48 6
-20 13 -31 9 -70 -21z"/>
<path d="M6537 4343 c-3 -3 -27 -7 -52 -8 -26 -2 -49 -6 -52 -9 -7 -7 17 -56
27 -56 6 0 40 -18 118 -65 60 -35 164 -111 172 -124 5 -9 10 -12 10 -7 0 16
128 -122 169 -183 32 -47 38 -61 28 -70 -15 -12 -56 7 -152 71 -65 43 -158
118 -163 130 -2 5 -7 8 -11 8 -10 0 -141 131 -141 141 0 10 -27 19 -34 12 -15
-15 -2 -42 44 -92 28 -29 50 -55 50 -57 0 -2 8 -12 18 -22 28 -30 62 -72 58
-72 -2 0 9 -16 26 -35 17 -19 49 -60 70 -92 60 -88 171 -222 186 -223 6 0 12
-4 12 -8 0 -4 24 -22 54 -40 61 -37 148 -70 233 -88 15 -3 23 20 17 48 -14 59
-23 95 -28 113 -7 30 -30 89 -36 95 -3 3 -6 11 -8 19 -2 8 -12 27 -23 42 -10
15 -19 32 -19 38 0 14 -138 178 -183 218 -20 18 -37 37 -37 42 0 5 -4 11 -9
13 -8 3 -104 84 -151 128 -15 14 -34 30 -42 35 -9 6 -40 28 -69 51 -68 51 -75
55 -82 47z"/>
<path d="M5727 4292 c-13 -14 -28 -19 -52 -16 -25 2 -37 -2 -44 -14 -11 -20
-23 -115 -24 -182 0 -79 39 -184 85 -223 20 -16 22 -17 40 0 10 9 32 44 48 77
25 54 34 85 43 161 2 11 -3 39 -10 63 -6 23 -9 42 -6 42 4 0 2 5 -5 12 -7 7
-12 20 -12 29 0 10 -10 30 -23 44 -22 26 -23 26 -40 7z"/>
<path d="M2911 4248 c-38 -97 -43 -178 -16 -270 6 -21 52 -96 66 -108 3 -3 9
-14 13 -25 7 -19 10 -17 37 15 68 79 91 174 75 305 -11 97 -18 110 -59 110
-20 0 -42 6 -48 13 -26 25 -46 13 -68 -40z"/>
<path d="M4901 4202 c-18 -20 -39 -50 -46 -67 -41 -92 -39 -140 10 -234 l37
-72 29 38 c16 21 29 44 29 51 0 6 4 12 8 12 14 0 28 62 26 115 -4 65 -2 61
-46 162 l-14 32 -33 -37z"/>
<path d="M3759 4223 c-1 -5 -1 -11 0 -15 0 -5 -3 -8 -7 -8 -9 0 -38 -70 -34
-82 1 -4 -2 -8 -8 -8 -5 0 -8 -31 -6 -75 4 -76 24 -125 75 -184 l21 -24 10 24
c6 13 19 40 30 59 10 19 16 38 14 42 -2 3 1 8 7 10 24 8 3 178 -22 178 -5 0
-9 6 -9 13 0 13 -53 77 -64 77 -3 0 -7 -3 -7 -7z"/>
<path d="M4039 4202 c-48 -52 -78 -100 -85 -133 -12 -61 -5 -129 16 -156 11
-14 20 -29 20 -34 0 -4 16 -24 37 -43 28 -28 39 -33 49 -25 8 6 11 15 8 20 -3
5 -1 9 4 9 13 0 73 128 74 159 2 47 -37 154 -63 171 -4 3 -14 18 -22 32 l-14
27 -24 -27z"/>
<path d="M4604 4178 c-46 -68 -72 -137 -67 -177 4 -37 68 -175 90 -192 16 -14
64 38 100 106 41 78 35 147 -20 229 -20 30 -61 76 -68 76 -3 0 -19 -19 -35
-42z"/>
<path d="M4311 4117 c-43 -60 -67 -115 -65 -152 2 -42 38 -116 75 -156 15 -16
26 -30 25 -32 0 -2 8 7 19 19 32 35 60 78 57 87 -1 4 2 7 6 7 5 0 9 6 9 13 1
6 6 26 11 43 12 38 0 76 -54 165 l-40 66 -43 -60z"/>
<path d="M2405 4112 c-7 -7 -11 -8 -54 -10 -13 -1 -22 -4 -19 -7 2 -3 -26 -36
-63 -74 -38 -37 -65 -71 -62 -75 4 -3 -1 -6 -10 -6 -9 0 -16 -3 -15 -7 2 -5
-20 -37 -47 -72 -28 -35 -49 -68 -47 -72 1 -5 -3 -9 -8 -9 -6 0 -14 -10 -19
-23 -5 -12 -22 -45 -38 -72 -28 -48 -80 -187 -86 -230 -1 -11 -5 -24 -8 -30
-4 -9 -4 -42 0 -108 1 -14 6 -17 24 -11 12 4 24 9 27 13 3 3 12 7 20 9 8 2 23
11 33 19 9 9 17 13 17 9 0 -4 22 5 49 21 27 15 47 31 45 35 -3 4 0 8 6 8 6 0
38 25 70 56 54 51 117 142 162 234 9 19 29 53 43 75 13 22 29 51 35 64 6 13
25 41 42 63 32 41 33 45 8 48 -47 7 -66 -1 -88 -37 -13 -21 -23 -42 -22 -47 1
-5 -4 -12 -10 -16 -6 -4 -19 -19 -28 -33 -66 -100 -102 -144 -167 -206 -41
-39 -84 -71 -95 -71 -17 0 -19 6 -15 41 11 104 134 290 303 456 28 28 52 53
52 56 0 9 -28 16 -35 9z"/>
<path d="M6271 4111 c-9 -6 -5 -16 15 -40 14 -17 29 -29 32 -26 3 3 11 -3 16
-14 6 -11 34 -43 61 -73 100 -105 195 -254 211 -331 14 -68 13 -77 -10 -77
-27 0 -174 148 -221 222 -5 9 -31 48 -57 87 -27 39 -48 75 -48 80 0 16 -33 29
-55 21 -11 -4 -26 -5 -32 -3 -7 3 -13 2 -13 -1 0 -6 38 -64 50 -76 6 -6 23
-37 55 -97 13 -23 26 -39 29 -36 3 4 6 -1 6 -10 0 -19 91 -179 125 -219 33
-39 140 -128 154 -128 6 0 11 -4 11 -10 0 -5 6 -10 14 -10 7 0 25 -9 40 -21
14 -11 26 -18 26 -15 0 4 17 -2 38 -13 21 -11 43 -16 48 -13 10 7 10 89 0 132
-4 14 -9 38 -12 55 -3 16 -10 32 -15 36 -6 3 -10 10 -10 15 2 21 -34 113 -62
159 -51 84 -82 130 -89 133 -5 2 -8 9 -8 15 0 7 -16 29 -35 50 -18 20 -32 37
-30 37 3 0 -30 36 -73 80 -52 55 -86 82 -106 86 -16 3 -32 7 -36 9 -3 2 -12 0
-19 -4z"/>
<path d="M2783 4058 c-17 -22 -23 -49 -29 -116 -3 -36 -7 -69 -10 -74 -3 -5
-8 -25 -10 -46 -12 -91 -67 -267 -101 -318 -28 -44 -55 -21 -55 46 1 35 10
110 17 140 3 14 8 36 11 50 3 14 10 41 16 60 6 19 11 36 10 37 0 1 8 26 18 54
11 29 17 56 14 60 -3 5 -1 9 4 9 5 0 9 7 9 15 0 44 -39 -9 -119 -164 -27 -53
-49 -97 -48 -98 0 -5 -5 -23 -14 -48 -35 -92 -59 -206 -56 -270 2 -71 22 -159
40 -178 11 -12 106 52 160 107 24 25 41 46 38 46 -4 0 4 12 18 27 13 14 22 28
19 31 -2 2 1 14 7 26 7 11 13 23 13 26 1 3 7 23 13 45 6 22 14 58 18 80 3 22
9 44 12 49 3 5 7 30 8 55 2 25 6 64 9 86 6 38 16 171 17 225 0 41 -2 50 -11
50 -5 0 -13 -6 -18 -12z"/>
<path d="M5888 4058 c-5 -17 6 -243 12 -243 2 0 4 -18 6 -40 1 -22 5 -56 9
-75 3 -19 8 -48 10 -65 2 -16 11 -55 20 -85 9 -30 18 -62 20 -70 10 -40 37
-89 69 -124 20 -21 36 -40 36 -43 0 -8 63 -58 101 -79 23 -14 42 -18 50 -13 8
5 10 9 5 9 -5 0 -3 6 3 14 12 15 17 33 27 106 7 51 7 51 0 105 -15 114 -39
193 -100 325 -6 14 -13 27 -16 30 -3 3 -16 29 -30 57 -14 29 -29 53 -33 53 -5
0 -6 3 -3 8 2 4 -8 23 -24 42 -26 32 -28 33 -25 9 2 -14 10 -47 20 -74 9 -28
18 -54 19 -60 2 -5 8 -30 15 -55 7 -25 15 -52 16 -61 2 -9 7 -32 12 -50 8 -27
11 -170 4 -201 -3 -17 -33 -7 -38 12 -3 11 -9 20 -12 20 -4 0 -8 6 -8 13 0 6
-10 32 -22 57 -22 44 -26 56 -35 112 -2 15 -7 31 -10 36 -3 5 -8 27 -12 47 -3
21 -8 47 -10 59 -13 56 -16 74 -19 111 -4 54 -16 97 -31 112 -16 16 -21 16
-26 1z"/>
<path d="M3895 3836 c-35 -36 -53 -60 -57 -76 -2 -8 -7 -18 -11 -21 -4 -3 -10
-18 -13 -34 -3 -15 -6 -30 -6 -34 -4 -15 16 -81 40 -130 24 -49 27 -52 35 -33
6 12 14 22 19 22 5 0 6 5 3 10 -3 6 -2 10 2 10 5 0 17 14 26 30 10 17 15 30
12 30 -4 0 2 12 12 28 15 21 17 36 12 72 -10 65 -14 76 -27 92 -6 8 -15 23
-19 35 l-8 20 -20 -21z"/>
<path d="M5787 3822 c-10 -24 -14 -54 -11 -87 8 -76 8 -146 1 -185 -11 -60
-13 -64 -25 -88 -18 -32 -47 -14 -57 35 -5 21 -10 45 -13 53 -2 8 -5 24 -6 36
-1 11 -6 25 -10 32 -4 7 -2 12 5 12 8 0 8 4 1 13 -5 6 -8 42 -7 79 3 55 0 70
-16 84 -21 19 -21 19 -21 -56 0 -54 4 -73 17 -82 6 -5 6 -8 -2 -8 -7 0 -10 -9
-7 -22 5 -23 7 -33 18 -118 11 -79 15 -104 21 -130 4 -14 8 -34 10 -45 4 -21
45 -137 51 -144 6 -7 33 30 50 69 16 38 32 102 41 165 4 35 4 291 0 382 -3 46
-22 48 -40 5z"/>
<path d="M2879 3843 c-1 -5 -3 -21 -5 -38 -7 -46 -10 -339 -5 -350 3 -5 6 -23
7 -40 3 -38 13 -85 22 -99 3 -6 8 -18 9 -28 1 -9 12 -32 24 -52 17 -29 24 -34
35 -25 8 6 12 15 9 19 -3 5 -1 10 4 12 6 1 12 14 15 28 2 14 11 45 19 70 7 25
13 54 11 63 -1 9 1 17 4 17 4 0 8 10 8 23 1 12 5 40 9 62 9 56 16 112 19 165
2 25 4 45 6 45 5 0 4 97 -1 101 -4 2 -14 -5 -24 -16 -14 -15 -17 -38 -18 -112
0 -51 -3 -97 -6 -103 -3 -5 -6 -20 -7 -32 0 -12 -9 -42 -18 -67 -12 -32 -21
-43 -32 -39 -38 14 -56 141 -41 297 3 34 -1 58 -12 77 -15 28 -30 37 -32 22z"/>
<path d="M4765 3820 c-4 -16 -10 -30 -15 -30 -4 0 -12 -19 -16 -42 -11 -64
-12 -78 -2 -84 4 -3 6 -10 3 -15 -4 -5 -1 -9 5 -9 6 0 9 -4 5 -9 -3 -5 1 -15
8 -23 7 -7 14 -16 15 -21 4 -17 32 -64 46 -76 12 -10 17 -8 27 11 7 13 14 28
15 33 2 6 12 35 22 65 11 30 17 59 14 65 -4 5 -7 15 -8 20 -8 45 -76 145 -98
145 -8 0 -17 -13 -21 -30z"/>
<path d="M4170 3832 c0 -4 -10 -19 -22 -33 -38 -42 -67 -95 -92 -165 -12 -34
-12 -46 0 -80 7 -21 13 -40 13 -42 -1 -12 27 -72 34 -72 4 0 6 -4 2 -9 -3 -5
2 -17 11 -25 8 -9 12 -16 8 -16 -5 0 -3 -5 4 -12 9 -9 15 -8 27 8 30 38 80
117 78 123 -1 3 2 11 7 16 12 15 39 123 32 130 -3 3 -6 13 -7 23 -4 39 -17 82
-26 82 -5 0 -8 3 -7 8 3 9 -43 72 -54 72 -4 0 -8 -3 -8 -8z"/>
<path d="M4490 3808 c-14 -18 -24 -36 -22 -40 1 -5 -2 -8 -7 -8 -9 0 -22 -43
-26 -80 0 -9 -3 -20 -6 -25 -23 -44 103 -301 136 -277 14 10 61 108 73 154 15
53 8 118 -17 158 -12 19 -24 43 -27 53 -4 9 -10 17 -15 17 -5 0 -9 7 -9 15 0
8 -5 15 -12 15 -6 0 -9 3 -5 6 6 6 -23 44 -33 44 -4 0 -17 -15 -30 -32z"/>
<path d="M3161 3783 c5 -14 9 -33 8 -42 -2 -9 1 -31 5 -50 5 -19 10 -50 11
-70 2 -20 4 -36 5 -36 2 0 11 -37 15 -68 3 -16 8 -34 12 -40 4 -7 9 -21 10
-32 2 -11 8 -24 13 -29 6 -6 10 -16 10 -23 0 -15 59 -115 74 -125 14 -9 27 4
29 31 1 11 4 21 7 21 7 0 9 20 11 140 3 144 -9 190 -48 190 -20 0 -24 -3 -18
-17 5 -10 9 -54 9 -98 1 -69 -1 -80 -17 -83 -12 -3 -22 8 -34 35 -9 21 -17 40
-18 43 0 3 -3 10 -6 15 -4 6 -10 28 -14 50 -5 22 -10 47 -11 55 -2 8 -6 32 -9
54 -6 43 -33 106 -46 106 -5 0 -4 -12 2 -27z"/>
<path d="M5534 3802 c-19 -12 -34 -49 -40 -94 -5 -47 -11 -82 -14 -85 -2 -2
-3 -6 -4 -10 -1 -5 -6 -23 -10 -42 -13 -55 -46 -121 -60 -121 -20 0 -23 16
-21 118 1 50 1 92 -2 92 -2 0 -13 -5 -23 -10 -20 -11 -32 -54 -34 -129 -1 -26
-5 -52 -9 -58 -4 -6 -3 -14 2 -17 5 -3 9 -25 9 -48 1 -43 3 -58 15 -90 4 -10
9 -25 12 -34 5 -15 7 -15 25 1 18 17 94 158 95 179 1 6 6 22 12 36 6 14 13 43
17 65 3 22 8 51 11 65 8 38 16 91 19 130 1 20 6 41 10 48 8 14 6 15 -10 4z"/>
<path d="M4331 3538 c-41 -66 -98 -198 -86 -198 3 0 1 -9 -5 -19 -5 -11 -6
-22 -2 -25 4 -2 9 -23 10 -46 2 -23 12 -64 22 -91 11 -27 17 -49 14 -49 -4 0
-2 -6 3 -12 6 -7 16 -30 22 -50 7 -21 17 -38 22 -38 6 0 8 -3 6 -7 -3 -5 -2
-16 2 -26 6 -17 8 -16 18 5 92 185 117 319 79 423 -18 47 -50 105 -58 105 -5
0 -7 3 -5 8 3 4 -3 15 -12 24 -16 16 -18 16 -30 -4z"/>
<path d="M3945 3474 c-10 -14 -29 -37 -42 -52 -63 -71 -65 -118 -6 -190 l35
-42 30 22 c17 12 33 30 36 40 2 10 8 18 12 18 5 0 12 13 18 28 8 23 4 44 -17
105 -33 95 -41 104 -66 71z"/>
<path d="M4720 3489 c0 -6 -11 -34 -24 -62 -45 -95 -41 -129 24 -200 19 -21
38 -33 46 -30 21 8 72 85 78 117 5 29 -11 76 -26 76 -5 0 -6 5 -3 10 3 6 1 10
-4 10 -6 0 -22 18 -37 39 -25 39 -54 60 -54 40z"/>
<path d="M3705 3274 c-66 -42 -175 -140 -175 -155 0 -10 51 -1 66 12 6 5 13 7
16 4 11 -12 176 60 194 84 8 10 8 21 -2 40 -8 14 -14 34 -14 44 0 25 -8 22
-85 -29z"/>
<path d="M4910 3304 c0 -11 -6 -30 -13 -44 -15 -29 -12 -50 9 -50 8 0 14 -4
14 -9 0 -8 21 -17 44 -19 5 0 12 -5 16 -12 4 -6 19 -13 35 -16 15 -3 35 -9 44
-13 9 -5 30 -11 46 -15 17 -3 41 -8 55 -12 60 -16 -161 174 -235 202 -10 4
-15 0 -15 -12z"/>
<path d="M4539 3263 c5 -10 12 -34 15 -53 12 -66 25 -100 37 -100 6 0 8 -4 4
-9 -3 -5 2 -16 10 -24 8 -9 15 -20 15 -25 0 -16 99 -111 133 -126 42 -19 56
-21 93 -12 46 11 77 47 65 77 -12 33 -36 52 -106 84 -82 38 -139 79 -207 147
-60 60 -75 71 -59 41z"/>
<path d="M4105 3229 c-51 -51 -150 -129 -164 -129 -6 0 -11 -4 -11 -10 0 -5
-3 -9 -7 -8 -19 5 -113 -49 -127 -73 -23 -39 -20 -51 18 -76 76 -49 136 -27
247 94 29 31 66 106 78 158 7 28 14 58 17 68 8 27 -8 20 -51 -24z"/>
<path d="M2123 3192 c-65 -31 -60 -99 15 -199 26 -34 50 -63 54 -63 8 0 39
-24 72 -56 40 -38 132 -77 166 -69 32 7 73 42 64 56 -2 4 0 10 6 14 6 3 6 13
1 23 -34 68 -50 94 -81 128 -38 42 -153 144 -162 144 -3 0 -23 8 -44 17 -53
22 -54 23 -91 5z"/>
<path d="M6528 3205 c-3 -3 -15 -8 -28 -10 -35 -7 -128 -74 -198 -143 -100
-98 -127 -179 -76 -229 19 -19 72 -24 99 -10 11 6 25 12 32 13 31 5 170 119
179 146 3 11 8 17 12 14 7 -8 67 82 75 113 7 28 -19 88 -42 94 -9 3 -23 8 -32
11 -8 4 -18 4 -21 1z"/>
<path d="M3805 3149 c-27 -16 -59 -34 -70 -38 -11 -5 -49 -39 -85 -75 -68 -70
-68 -69 8 -68 42 1 65 9 58 21 -3 5 1 14 9 21 8 7 15 18 15 24 0 6 11 22 25
36 34 35 55 52 55 44 0 -3 6 -1 13 5 8 6 17 8 20 4 4 -3 9 2 13 11 3 9 11 13
18 9 6 -3 2 3 -8 15 -11 12 -20 22 -20 21 -1 0 -23 -14 -51 -30z"/>
<path d="M4826 3163 c-15 -15 -4 -31 25 -37 32 -6 111 -78 117 -106 8 -34 40
-55 84 -54 27 0 43 5 42 12 -2 29 -4 35 -10 30 -3 -3 -23 13 -44 36 -21 23
-69 59 -106 81 -67 40 -96 50 -108 38z"/>
<path d="M4181 3111 c-7 -12 -10 -21 -7 -21 2 0 -1 -19 -8 -42 -18 -67 -9
-121 34 -203 16 -30 26 -55 23 -55 -3 0 0 -7 7 -15 7 -8 9 -15 5 -15 -4 0 -3
-6 3 -13 6 -7 13 -34 16 -61 3 -27 8 -51 10 -53 2 -3 -3 -25 -11 -50 -16 -45
-73 -113 -96 -113 -8 0 -7 -4 2 -9 15 -10 71 5 82 21 3 6 10 10 15 10 15 1 44
22 44 31 0 10 41 46 52 47 4 0 26 -20 49 -45 23 -25 45 -45 50 -45 4 0 20 -5
36 -11 59 -24 65 -16 19 26 -90 82 -93 174 -11 340 19 39 36 81 39 95 2 14 5
26 6 28 3 3 3 51 0 55 -1 1 -3 11 -5 22 -8 48 -16 70 -30 84 -13 14 -15 13
-16 -2 -2 -24 0 -18 -42 -127 -12 -30 -22 -61 -23 -68 -2 -7 -10 -24 -19 -38
-9 -14 -18 -35 -20 -46 -5 -25 -24 -48 -39 -48 -9 0 -45 64 -51 90 -5 23 -30
80 -35 80 -4 0 -7 6 -7 13 0 16 -44 139 -54 151 -4 4 -12 -1 -18 -13z"/>
<path d="M3509 3038 c-13 -5 -39 -11 -58 -14 -46 -8 -66 -12 -66 -14 0 -2 -37
-9 -62 -12 -7 -1 -13 -5 -13 -10 0 -4 -3 -7 -7 -7 -5 1 -11 0 -15 -1 -5 -1
-11 -3 -16 -4 -17 -3 -101 -64 -95 -70 3 -3 1 -6 -5 -6 -7 0 -12 -4 -12 -10 0
-8 17 -15 60 -25 3 -1 17 -5 31 -9 20 -6 42 1 95 29 38 20 77 38 86 40 26 5
73 43 108 86 26 33 28 38 10 36 -10 -1 -29 -5 -41 -9z"/>
<path d="M5151 3019 c20 -29 91 -89 104 -89 10 0 125 -56 147 -72 13 -9 29 -8
77 7 34 10 61 22 61 26 0 4 -17 21 -37 36 -21 15 -39 31 -41 36 -2 4 -11 7
-21 7 -9 0 -21 4 -26 9 -12 10 -135 42 -183 47 -18 1 -38 6 -45 11 -6 4 -22 8
-34 9 l-22 1 20 -28z"/>
<path d="M2033 3018 c3 -9 3 -19 0 -22 -4 -3 -7 -21 -8 -39 -2 -18 -14 -62
-29 -98 -26 -66 -66 -182 -71 -209 -2 -8 -4 -15 -5 -15 -1 0 -4 -11 -5 -25 -2
-14 -7 -45 -10 -70 -4 -25 -7 -52 -6 -60 3 -58 10 -120 14 -128 4 -5 9 -24 12
-43 3 -19 10 -35 16 -37 5 -2 9 -13 10 -25 0 -12 9 -35 20 -52 10 -16 23 -40
29 -52 5 -13 14 -23 20 -23 6 0 9 -4 5 -9 -3 -6 33 -55 80 -111 75 -90 90
-115 86 -142 -2 -14 48 -21 159 -23 131 -1 140 0 140 25 0 20 -35 32 -105 35
-72 4 -107 17 -146 56 -35 35 -61 81 -76 134 -12 43 -6 160 11 190 9 17 16 35
16 40 0 32 151 150 181 142 3 -1 12 3 20 9 11 8 134 12 134 4 0 -1 7 -3 15 -5
104 -20 230 -158 230 -250 0 -33 11 -31 31 3 22 39 15 85 -22 139 -39 56 -108
125 -119 118 -5 -3 -10 -1 -12 5 -7 21 -113 51 -183 52 -112 1 -224 -51 -286
-133 -38 -48 -50 -60 -60 -53 -15 9 15 114 59 204 40 82 83 132 145 170 l39
23 -49 24 c-91 47 -192 136 -262 235 -13 18 -21 26 -18 16z"/>
<path d="M6650 3012 c0 -19 -36 -63 -44 -55 -3 3 -6 0 -6 -7 0 -14 -71 -84
-130 -129 -19 -14 -37 -28 -40 -31 -12 -12 -51 -30 -65 -30 -28 0 -15 -25 30
-55 40 -27 105 -101 105 -121 0 -4 6 -15 13 -23 19 -22 58 -122 52 -131 -3 -5
-1 -11 5 -15 6 -4 8 -11 5 -16 -4 -5 -2 -9 3 -9 17 0 7 -43 -10 -46 -10 -1
-18 2 -18 8 0 25 -85 108 -140 137 -33 17 -62 31 -65 31 -3 0 -6 0 -7 1 -49
15 -144 13 -210 -4 -65 -16 -143 -68 -175 -117 -13 -18 -23 -29 -24 -24 0 5
-5 -2 -10 -16 -6 -14 -10 -27 -9 -29 1 -2 -4 -7 -11 -12 -8 -4 -14 -26 -14
-49 0 -23 6 -45 14 -49 7 -5 12 -11 12 -15 -1 -3 2 -6 7 -6 4 0 8 5 8 10 1 6
2 11 4 13 1 1 3 9 5 18 14 72 81 158 154 196 58 31 81 37 156 36 160 -2 299
-143 298 -303 0 -74 -4 -94 -29 -147 -19 -38 -93 -117 -102 -108 -3 3 -11 0
-18 -6 -7 -5 -38 -12 -70 -14 -90 -7 -114 -14 -114 -36 0 -10 3 -19 8 -20 46
-5 262 -2 262 4 0 5 4 6 9 3 4 -3 13 12 20 33 6 22 38 68 74 108 91 102 182
263 201 358 12 61 19 111 18 130 -4 54 -11 105 -18 136 -4 19 -8 36 -8 39 -2
10 -28 95 -36 115 -46 111 -64 165 -65 190 -1 30 -24 82 -25 57z"/>
<path d="M5140 2906 c0 -6 8 -19 18 -28 9 -9 30 -34 46 -57 17 -23 34 -41 38
-41 18 0 98 41 98 50 0 11 -58 39 -142 68 -41 14 -58 17 -58 8z"/>
<path d="M3460 2883 c-25 -13 -51 -23 -57 -23 -7 0 -13 -5 -13 -11 0 -5 -4 -8
-9 -5 -5 3 -14 -1 -20 -8 -10 -12 -1 -18 46 -36 l58 -22 15 22 c8 11 30 39 48
61 17 23 32 43 32 45 0 11 -60 -3 -100 -23z"/>
<path d="M3621 2853 c-68 -63 -99 -115 -97 -163 4 -71 20 -91 86 -110 22 -6
36 -3 64 16 47 32 47 50 -1 48 -89 -4 -113 81 -50 168 19 25 74 59 106 64 17
3 38 24 26 25 -65 9 -78 5 -134 -48z"/>
<path d="M4943 2894 c-17 -15 -17 -15 4 -11 12 3 23 1 25 -5 2 -5 10 -10 18
-11 31 -5 81 -42 93 -69 6 -16 14 -28 18 -28 10 0 4 -84 -7 -104 -7 -12 -25
-19 -50 -21 -21 -1 -45 -3 -51 -4 -19 -2 27 -51 47 -51 9 0 20 -4 26 -10 6 -6
24 -2 50 9 90 40 81 157 -18 247 -78 70 -120 86 -155 58z"/>
<path d="M4589 2874 c-6 -16 -12 -34 -13 -40 -1 -7 -7 -18 -13 -26 -20 -24
-25 -66 -12 -105 7 -21 11 -38 10 -38 -8 0 84 -162 117 -206 66 -87 176 -162
257 -175 34 -5 36 -4 26 14 -6 11 -7 22 -4 26 3 3 2 6 -4 6 -5 0 -15 11 -20
23 -6 13 -46 50 -90 82 -149 111 -215 191 -232 280 -10 52 -6 75 13 75 11 -1
86 -66 86 -76 0 -3 6 -12 13 -19 6 -8 32 -38 57 -68 43 -52 99 -98 149 -125
29 -15 67 -22 75 -14 6 6 -17 45 -43 74 -16 17 -88 68 -96 68 -22 0 -175 156
-175 178 0 4 -20 28 -45 52 l-44 43 -12 -29z"/>
<path d="M4049 2853 c-20 -21 -46 -55 -58 -75 -25 -41 -92 -101 -188 -168 -61
-42 -113 -97 -113 -120 0 -14 37 -7 90 18 36 16 196 169 187 179 -3 2 2 12 11
22 10 10 29 32 45 49 16 19 37 32 50 32 20 0 23 -5 21 -32 -1 -18 -2 -33 -3
-33 -2 0 -4 -7 -6 -15 -17 -66 -27 -90 -37 -90 -5 0 -7 -4 -4 -9 6 -9 -68 -82
-149 -146 -27 -22 -52 -43 -53 -48 -2 -4 -7 -5 -12 -2 -12 7 -77 -71 -89 -107
l-11 -30 38 7 c124 23 261 147 331 300 36 78 39 87 52 132 11 38 10 46 -15 92
-14 28 -26 57 -26 66 0 26 -24 17 -61 -22z"/>
<path d="M3100 2808 c-25 -27 -25 -35 -2 -46 19 -10 112 -9 128 1 14 8 74 -29
74 -47 0 -11 12 -13 50 -10 28 2 50 0 50 -5 0 -4 11 -13 24 -21 13 -7 27 -22
31 -34 6 -21 6 -21 14 -1 4 11 4 27 -2 36 -16 26 -99 67 -203 99 -54 17 -109
35 -121 40 -18 7 -27 5 -43 -12z"/>
<path d="M5550 2818 c-14 -6 -47 -17 -75 -25 -27 -8 -54 -15 -60 -17 -5 -2
-23 -8 -38 -14 -16 -7 -32 -12 -36 -12 -10 0 -118 -69 -108 -70 4 0 3 -9 -3
-19 -6 -13 -6 -22 -1 -26 6 -3 15 4 21 15 25 47 45 58 103 55 31 -1 54 2 51 6
-3 5 3 17 13 28 15 15 31 18 96 16 43 -1 80 2 83 7 3 5 10 5 16 2 8 -5 9 -1 5
10 -4 10 -7 21 -7 24 0 17 -36 29 -60 20z"/>
<path d="M3152 2692 c-13 -2 -26 -10 -29 -18 -3 -8 -10 -14 -17 -14 -6 0 -22
-19 -36 -42 -14 -22 -33 -53 -42 -67 -33 -52 -147 -272 -169 -326 -23 -59 -82
-175 -89 -175 -4 0 -10 -9 -13 -19 -6 -23 -42 -48 -80 -55 -28 -5 -82 18 -118
50 -9 8 -19 11 -22 7 -4 -3 -7 -2 -7 4 0 8 -75 38 -90 36 -3 -1 -22 -4 -43 -7
-41 -7 -78 -24 -90 -44 -5 -7 -12 -10 -17 -7 -14 9 -21 -28 -8 -42 8 -7 42
-15 77 -18 35 -3 67 -8 72 -11 5 -3 22 -7 37 -10 15 -3 72 -27 127 -54 95 -46
178 -68 200 -52 6 4 12 14 14 22 15 64 44 149 61 181 11 22 16 39 12 39 -4 0
-2 4 3 8 6 4 23 32 39 62 15 30 36 69 46 85 11 17 23 37 27 45 8 16 19 31 46
61 9 10 15 19 11 19 -3 0 14 21 38 46 46 50 140 124 158 124 5 0 10 5 10 10 0
6 3 9 8 8 4 0 27 8 52 20 24 11 48 18 52 16 4 -3 8 0 8 5 0 6 3 10 8 10 28 -5
32 2 16 26 -9 14 -20 23 -24 20 -5 -3 -12 -1 -15 5 -4 7 -23 2 -52 -15 -57
-31 -86 -26 -80 14 8 49 -13 62 -81 53z"/>
<path d="M5469 2677 c-1 -24 -9 -81 -12 -83 -2 -2 -31 11 -77 36 -25 13 -39
15 -47 8 -7 -6 -13 -7 -13 -4 0 4 -7 1 -15 -8 -15 -15 -21 -48 -7 -44 37 10
272 -124 272 -155 0 -4 5 -5 10 -2 6 3 10 3 10 -2 0 -4 18 -28 40 -53 22 -25
40 -50 40 -57 0 -7 6 -16 13 -20 7 -4 18 -19 25 -33 14 -29 35 -63 43 -70 6
-5 74 -148 90 -187 5 -13 13 -33 19 -45 5 -13 14 -43 20 -68 20 -80 20 -81 38
-71 9 4 27 7 40 6 12 -1 22 2 22 6 0 4 9 6 20 4 11 -2 20 1 20 7 0 6 3 8 7 5
3 -4 12 -2 20 4 7 6 13 8 13 4 0 -4 15 4 33 17 33 26 160 75 187 73 8 -1 20 1
25 4 6 3 26 6 45 7 19 0 45 6 58 13 18 10 20 15 11 32 -5 11 -18 23 -27 26 -9
4 -20 10 -23 15 -3 5 -14 10 -25 13 -10 2 -33 8 -51 14 -17 5 -33 8 -35 6 -2
-2 -15 -6 -30 -9 -26 -4 -68 -24 -78 -35 -17 -21 -86 -52 -122 -56 -34 -3 -86
39 -113 91 -10 22 -24 46 -31 54 -6 8 -17 33 -24 55 -7 22 -20 48 -29 59 -9
10 -15 21 -15 25 3 15 -37 101 -96 206 -22 39 -44 79 -49 90 -5 11 -18 31 -30
44 -12 13 -21 30 -21 38 0 7 -4 13 -8 13 -5 0 -18 9 -30 20 -12 11 -40 22 -66
24 -42 5 -46 3 -47 -17z"/>
<path d="M4340 2425 c0 -8 -3 -15 -8 -15 -4 0 -16 -17 -27 -37 -11 -20 -24
-41 -30 -47 -5 -6 -22 -29 -38 -51 -31 -45 -81 -99 -184 -197 -39 -38 -70 -68
-68 -68 2 0 -15 -18 -38 -41 -38 -37 -39 -40 -16 -36 28 6 191 84 199 96 3 5
15 11 28 15 12 4 22 11 22 16 0 10 45 3 72 -11 52 -28 110 -28 188 -2 l65 22
50 -31 c65 -41 155 -87 180 -92 11 -2 29 -7 40 -11 11 -4 -34 47 -100 113 -66
67 -126 121 -132 122 -7 0 -13 5 -13 11 0 6 -18 33 -40 59 -22 26 -40 52 -40
58 0 5 -6 12 -14 15 -8 3 -21 19 -30 36 -9 17 -23 45 -32 61 -17 32 -34 40
-34 15z"/>
<path d="M4120 2390 c-11 -10 -20 -22 -20 -29 0 -6 -4 -11 -10 -11 -5 0 -10
-4 -10 -10 0 -17 -104 -135 -194 -219 -59 -57 -197 -160 -212 -161 -32 0 -20
-60 11 -60 7 0 48 23 92 52 85 57 318 282 308 298 -3 6 0 10 7 10 13 1 93 115
93 134 0 16 -45 14 -65 -4z"/>
<path d="M4515 2400 c-11 -5 -14 -9 -7 -9 6 -1 11 -4 10 -9 -6 -15 102 -150
200 -253 94 -98 235 -207 288 -223 22 -7 41 9 40 32 -1 12 -33 35 -68 48 -10
3 -18 10 -18 15 0 5 -5 9 -11 9 -6 0 -16 6 -24 13 -7 6 -47 41 -90 77 -69 58
-215 218 -215 236 0 10 -67 74 -77 73 -4 0 -17 -4 -28 -9z"/>
<path d="M3219 2339 c-5 -64 -2 -212 4 -216 5 -3 16 2 25 10 9 7 24 17 34 20
17 6 53 -15 53 -30 0 -5 15 -27 33 -50 17 -22 32 -44 32 -47 0 -3 7 -14 15
-23 24 -28 107 -142 155 -213 24 -36 46 -67 49 -70 3 -3 22 -27 41 -55 19 -27
38 -51 42 -53 4 -2 8 -8 8 -13 0 -5 25 -43 56 -85 l56 -76 24 36 25 36 -33 47
c-45 65 -45 64 -73 99 -14 18 -25 37 -25 43 0 6 -4 11 -8 11 -5 0 -15 12 -23
27 -8 15 -21 35 -29 44 -30 33 -50 59 -50 68 0 5 -6 14 -14 20 -8 7 -39 49
-70 94 -31 45 -80 116 -110 157 -31 41 -55 83 -56 93 0 9 14 26 32 37 l32 19
-30 12 c-16 7 -31 13 -34 14 -3 1 -12 5 -20 8 -18 7 -98 36 -122 44 -11 3 -18
0 -19 -8z"/>
<path d="M5440 2337 c0 -4 -4 -6 -9 -2 -5 3 -12 1 -16 -5 -3 -5 -14 -10 -23
-10 -9 0 -29 -6 -43 -14 -14 -7 -37 -16 -52 -20 -33 -8 -34 -21 -3 -41 27 -18
27 -46 0 -76 -10 -11 -14 -19 -10 -19 5 0 -5 -15 -20 -33 -16 -18 -47 -59 -69
-92 -22 -33 -43 -62 -46 -65 -3 -3 -22 -27 -41 -55 -19 -27 -65 -93 -102 -145
-37 -52 -74 -104 -81 -115 -8 -11 -55 -76 -104 -145 -49 -69 -111 -156 -138
-193 -70 -100 -100 -140 -119 -161 -16 -18 -17 -18 -35 5 -10 13 -19 30 -19
37 0 6 -5 12 -11 12 -5 0 -8 4 -4 9 3 6 -3 14 -12 20 -10 6 -14 11 -9 11 4 0
0 12 -9 27 -10 14 -32 54 -50 87 -18 34 -41 77 -51 96 -11 19 -21 37 -24 40
-3 3 -15 24 -27 48 -13 23 -33 61 -45 85 -13 23 -25 44 -29 47 -3 3 -13 22
-22 42 -10 20 -22 40 -27 43 -6 4 -8 10 -5 15 3 4 -3 18 -13 30 -17 21 -18 20
-142 -167 -69 -103 -128 -196 -132 -205 -4 -10 -12 -18 -18 -18 -5 0 -10 -5
-10 -11 0 -6 -9 -23 -20 -39 -11 -15 -17 -30 -13 -34 3 -3 1 -6 -5 -6 -6 0
-18 -13 -27 -30 -24 -46 -52 -56 -86 -31 -20 15 -29 17 -30 9 -4 -57 -3 -202
3 -211 4 -6 26 -2 65 14 32 13 60 24 63 24 3 0 25 9 49 19 l43 20 -23 17 c-13
10 -26 16 -30 13 -4 -2 -9 5 -12 16 -6 25 288 471 306 464 7 -2 28 -35 47 -72
19 -37 37 -69 40 -72 3 -3 14 -23 26 -45 11 -22 31 -57 42 -77 48 -83 65 -114
90 -162 14 -28 31 -58 38 -66 6 -8 29 -47 49 -87 20 -40 42 -77 49 -82 8 -7
42 33 116 137 58 80 107 150 109 156 2 6 11 17 18 25 8 8 26 30 39 50 13 20
34 50 46 67 13 17 42 59 65 92 23 33 49 67 58 75 8 9 15 19 15 24 0 5 13 24
30 43 16 19 29 41 30 48 0 6 4 12 8 12 5 0 15 12 23 28 8 15 22 36 33 47 10
11 25 31 34 45 9 14 55 78 102 143 47 65 90 126 95 135 31 51 64 58 103 22 14
-13 21 -15 24 -7 3 10 2 171 -1 214 -1 13 -41 14 -41 0z"/>
<path d="M4260 1969 c0 -15 56 -103 75 -119 11 -9 18 -8 33 7 19 17 75 102 70
104 -16 6 -60 4 -64 -2 -6 -10 -71 -1 -96 12 -13 7 -18 6 -18 -2z"/>
<path d="M3406 1838 c-9 -5 -27 -11 -39 -12 -12 -2 -49 -11 -81 -21 -32 -9
-73 -19 -90 -21 -17 -2 -41 -5 -52 -8 -75 -16 -138 -23 -259 -30 -56 -3 -71
-7 -73 -20 -7 -31 14 -42 78 -40 34 1 85 5 113 9 29 4 61 8 72 10 11 1 27 5
36 9 10 4 23 6 30 5 8 -2 28 0 44 4 17 4 43 9 58 11 47 8 211 57 221 66 11 11
-8 43 -26 46 -8 1 -22 -3 -32 -8z"/>
<path d="M5241 1837 c-16 -20 -17 -39 -1 -42 8 -2 29 -9 45 -16 17 -6 35 -13
40 -14 6 -1 12 -3 15 -4 3 -2 14 -4 25 -6 55 -10 103 -21 108 -25 1 -1 11 -3
22 -5 99 -14 123 -18 140 -22 68 -15 213 -22 238 -10 17 7 25 46 10 48 -5 0
-39 2 -78 4 -75 3 -145 11 -185 20 -14 3 -38 7 -55 10 -16 2 -43 7 -60 11 -16
3 -39 7 -50 9 -11 1 -20 3 -20 4 0 2 -9 4 -19 6 -11 2 -30 6 -43 10 -13 3 -26
6 -30 6 -5 1 -15 5 -24 10 -28 15 -68 18 -78 6z"/>
<path d="M2561 1813 c-11 -12 -10 -18 10 -39 13 -14 29 -22 36 -20 7 3 15 1
18 -3 2 -5 21 -12 41 -15 19 -4 41 -9 48 -12 15 -6 28 19 20 40 -5 13 -39 30
-56 27 -5 -1 -8 4 -8 10 0 5 -4 8 -9 4 -5 -3 -12 -1 -16 5 -4 6 -11 8 -16 5
-5 -4 -15 -3 -21 2 -21 12 -32 11 -47 -4z"/>
<path d="M6045 1808 c-58 -22 -90 -50 -82 -71 4 -12 14 -13 43 -7 21 5 40 8
43 7 3 -1 16 4 27 11 12 6 23 9 26 7 3 -3 13 4 23 16 14 15 17 24 9 36 -14 22
-31 23 -89 1z"/>
<path d="M4534 1808 c-6 -7 -16 -26 -24 -43 -8 -16 -26 -48 -39 -70 -40 -65
-76 -139 -76 -155 1 -23 27 -70 39 -70 6 0 16 10 22 23 33 65 48 92 54 97 4 3
10 15 14 28 10 30 40 28 57 -5 8 -16 18 -31 24 -35 5 -4 10 -11 10 -15 0 -4
15 -28 33 -52 17 -24 32 -48 32 -53 0 -5 8 -8 18 -6 9 2 16 8 15 13 -1 6 5 14
13 18 20 11 17 40 -6 70 -11 14 -20 27 -20 30 0 3 -143 220 -155 235 -1 1 -6
-3 -11 -10z"/>
<path d="M2427 1793 c-3 -2 -29 -6 -59 -8 -65 -4 -137 -20 -150 -33 -23 -23
19 -100 56 -106 11 -1 43 10 70 25 28 16 68 37 88 48 43 24 50 34 42 54 -5 15
-39 29 -47 20z"/>
<path d="M6285 1795 c-5 -2 -22 -6 -37 -9 -57 -13 -24 -50 100 -112 42 -22 71
-30 84 -25 24 9 57 58 53 80 -2 9 -4 19 -4 23 -1 8 -91 30 -135 33 -18 1 -37
4 -42 7 -5 3 -13 4 -19 3z"/>
<path d="M2475 1689 c-33 -17 -65 -37 -71 -45 -6 -7 -14 -11 -17 -8 -9 9 -20
-43 -14 -61 7 -16 63 -34 89 -27 27 7 93 75 118 122 29 54 -21 62 -105 19z"/>
<path d="M6121 1711 c-8 -5 -11 -16 -6 -30 11 -35 93 -128 117 -133 35 -7 86
10 98 33 10 17 6 25 -25 53 -63 58 -153 96 -184 77z"/>
<path d="M2683 1683 c-20 -4 -45 -28 -110 -106 -33 -40 -16 -44 74 -17 48 15
90 51 99 85 10 41 -3 50 -63 38z"/>
<path d="M5950 1669 c-18 -32 50 -99 115 -114 39 -10 76 -12 79 -6 7 11 -94
121 -110 121 -8 0 -14 5 -14 10 0 17 -61 7 -70 -11z"/>
<path d="M3983 1292 c-13 -15 -23 -32 -23 -37 0 -10 66 -114 79 -125 4 -3 17
-22 31 -42 14 -21 28 -38 33 -38 4 0 7 -6 7 -12 0 -7 11 -25 23 -40 18 -21 26
-25 35 -16 7 7 12 18 12 25 0 7 5 13 12 13 6 0 9 3 5 6 -3 4 6 25 22 48 29 44
45 76 43 89 -1 4 1 7 6 7 4 0 15 15 25 33 14 26 16 39 8 60 -6 15 -15 27 -21
27 -6 0 -8 5 -5 10 3 6 -1 10 -9 10 -14 0 -20 -12 -17 -32 0 -5 -3 -8 -9 -8
-5 0 -20 -24 -34 -52 -13 -29 -31 -61 -38 -72 -16 -20 -24 -15 -60 35 -35 47
-97 132 -100 134 -2 2 -13 -9 -25 -23z"/>
<path d="M4848 1285 c-22 -29 -22 -39 -3 -69 15 -23 14 -25 -20 -53 -41 -34
-44 -31 70 -74 33 -13 64 -27 69 -31 13 -10 46 -10 47 0 4 51 4 173 -1 195
l-5 29 -26 -21 c-28 -22 -69 -19 -69 5 0 8 -4 14 -10 14 -5 0 -10 7 -10 15 0
23 -23 17 -42 -10z"/>
</g>
</svg>
