<svg width="48" height="48" viewBox="0 0 48 48" fill="none" xmlns="http://www.w3.org/2000/svg">
<path d="M10.3125 42.75C8.97501 42.7328 7.69695 42.1947 6.75 41.25C6.27672 40.7818 5.90058 40.2248 5.64317 39.6109C5.38576 38.9969 5.25214 38.3382 5.25 37.6725V10.3125C5.25 8.96984 5.78337 7.68217 6.73277 6.73277C7.68217 5.78337 8.96984 5.25 10.3125 5.25H32.7225" stroke="white" stroke-width="3" stroke-linecap="round" stroke-linejoin="round"/>
<path d="M37.6875 5.25C39.025 5.26717 40.3031 5.8053 41.25 6.75C41.7233 7.21817 42.0994 7.77521 42.3568 8.38914C42.6142 9.00306 42.7479 9.66179 42.75 10.3275V37.7025C42.746 39.0426 42.2109 40.3264 41.2619 41.2725C40.313 42.2187 39.0276 42.75 37.6875 42.75H15.75" stroke="white" stroke-width="3" stroke-linecap="round" stroke-linejoin="round"/>
<path d="M24 39.75C23.0054 39.75 22.0516 39.3549 21.3483 38.6517C20.6451 37.9484 20.25 36.9946 20.25 36V27.75H12C11.0054 27.75 10.0516 27.3549 9.34835 26.6517C8.64509 25.9484 8.25 24.9946 8.25 24C8.25 23.0054 8.64509 22.0516 9.34835 21.3483C10.0516 20.6451 11.0054 20.25 12 20.25H20.25V12C20.25 11.0054 20.6451 10.0516 21.3483 9.34835C22.0516 8.64509 23.0054 8.25 24 8.25C24.9946 8.25 25.9484 8.64509 26.6517 9.34835C27.3549 10.0516 27.75 11.0054 27.75 12V20.25H36C36.9946 20.25 37.9484 20.6451 38.6517 21.3483C39.3549 22.0516 39.75 23.0054 39.75 24C39.75 24.9946 39.3549 25.9484 38.6517 26.6517C37.9484 27.3549 36.9946 27.75 36 27.75H27.75V36C27.75 36.9946 27.3549 37.9484 26.6517 38.6517C25.9484 39.3549 24.9946 39.75 24 39.75V39.75ZM12 22.5C11.6022 22.5 11.2206 22.658 10.9393 22.9393C10.658 23.2206 10.5 23.6022 10.5 24C10.5 24.3978 10.658 24.7794 10.9393 25.0607C11.2206 25.342 11.6022 25.5 12 25.5H21.375C21.6734 25.5 21.9595 25.6185 22.1705 25.8295C22.3815 26.0405 22.5 26.3266 22.5 26.625V36C22.5 36.3978 22.658 36.7794 22.9393 37.0607C23.2206 37.342 23.6022 37.5 24 37.5C24.3978 37.5 24.7794 37.342 25.0607 37.0607C25.342 36.7794 25.5 36.3978 25.5 36V26.625C25.5 26.3266 25.6185 26.0405 25.8295 25.8295C26.0405 25.6185 26.3266 25.5 26.625 25.5H36C36.3978 25.5 36.7794 25.342 37.0607 25.0607C37.342 24.7794 37.5 24.3978 37.5 24C37.5 23.6022 37.342 23.2206 37.0607 22.9393C36.7794 22.658 36.3978 22.5 36 22.5H26.625C26.3266 22.5 26.0405 22.3815 25.8295 22.1705C25.6185 21.9595 25.5 21.6734 25.5 21.375V12C25.5 11.6022 25.342 11.2206 25.0607 10.9393C24.7794 10.658 24.3978 10.5 24 10.5C23.6022 10.5 23.2206 10.658 22.9393 10.9393C22.658 11.2206 22.5 11.6022 22.5 12V21.375C22.5 21.6734 22.3815 21.9595 22.1705 22.1705C21.9595 22.3815 21.6734 22.5 21.375 22.5H12Z" fill="white"/>
</svg>
