<svg width="32" height="32" viewBox="0 0 32 32" fill="none" xmlns="http://www.w3.org/2000/svg">
<path d="M4.66698 3.90657H24.9058C25.337 3.90657 25.6862 4.25618 25.6862 4.68705V20.8216C25.6862 21.2525 25.337 21.6021 24.9058 21.6021H14.3147L9.0301 28.3093C8.57089 28.8936 7.63847 28.5584 7.63809 27.8274L7.63696 21.6021H4.66698C4.23574 21.6021 3.8865 21.2525 3.8865 20.8216V4.68705C3.8865 4.25618 4.23574 3.90657 4.66698 3.90657V3.90657ZM21.7268 0.393097C22.7537 0.393097 22.7537 1.95405 21.7268 1.95405H2.26848V17.3081C2.26848 18.335 0.70752 18.335 0.70752 17.3081V1.17358C0.70752 0.742706 1.05675 0.393097 1.488 0.393097H21.7268V0.393097ZM7.55192 11.5987C6.52501 11.5987 6.52501 10.0374 7.55192 10.0374H22.0212C23.0477 10.0374 23.0477 11.5987 22.0212 11.5987H7.55192ZM7.55192 14.6938C6.52501 14.6938 6.52501 13.1328 7.55192 13.1328H22.0212C23.0477 13.1328 23.0477 14.6938 22.0212 14.6938H7.55192ZM29.7315 7.68651C29.7315 6.65998 31.2925 6.65998 31.2925 7.68651V23.8211C31.2925 24.2523 30.9432 24.6019 30.512 24.6019H27.542V30.8268C27.542 31.5907 26.5589 31.8912 26.1243 31.2777L20.8647 24.6019H16.709C15.6825 24.6019 15.6825 23.0406 16.709 23.0406L21.2419 23.0417C21.4728 23.0417 21.7011 23.1441 21.8545 23.3395L25.981 28.5769V23.8211C25.981 23.3902 26.3306 23.0406 26.7615 23.0406H29.7315V7.68651V7.68651ZM24.1253 5.46753H5.44746V20.0411H8.41744C8.84831 20.0411 9.19792 20.3907 9.19792 20.8216V25.577L13.2999 20.3707C13.4412 20.1711 13.674 20.0411 13.9371 20.0411H24.1253V5.46753V5.46753Z" fill="white"/>
</svg>
