<svg width="40" height="81" viewBox="0 0 40 81" fill="none" xmlns="http://www.w3.org/2000/svg">
<path d="M11.4286 0C14.4596 0 17.3665 0.948211 19.5098 2.63604C21.6531 4.32387 22.8571 6.61305 22.8571 9V27C22.8571 29.3869 24.0612 31.6761 26.2045 33.364C28.3478 35.0518 31.2547 36 34.2857 36H40V45H34.2857C31.2547 45 28.3478 45.9482 26.2045 47.636C24.0612 49.3239 22.8571 51.6131 22.8571 54V72C22.8571 74.3869 21.6531 76.6761 19.5098 78.364C17.3665 80.0518 14.4596 81 11.4286 81H0V72H11.4286V49.5C11.4286 47.113 12.6327 44.8239 14.7759 43.136C16.9192 41.4482 19.8261 40.5 22.8571 40.5C19.8261 40.5 16.9192 39.5518 14.7759 37.864C12.6327 36.1761 11.4286 33.8869 11.4286 31.5V9H0V0H11.4286Z" fill="#909090"/>
</svg>
