<svg width="32" height="32" viewBox="0 0 32 32" fill="none" xmlns="http://www.w3.org/2000/svg">
<path d="M26.5 4H5.5C3.56712 4 2 5.791 2 8V24C2 26.209 3.56712 28 5.5 28H26.5C28.4329 28 30 26.209 30 24V8C30 5.791 28.4329 4 26.5 4ZM20.739 14.6738L28.1475 7.41794C28.1988 7.60544 28.25 7.79294 28.25 8V24C28.25 24.1387 28.2038 24.2618 28.1799 24.3926L20.739 14.6738ZM26.5 6C26.6162 6 26.7188 6.05081 26.8281 6.07619L16 16.6836L5.17188 6.07619C5.28125 6.05081 5.38379 6 5.5 6H26.5ZM3.81923 24.3906C3.79528 24.2598 3.75 24.1387 3.75 24V8C3.75 7.79294 3.80212 7.60544 3.85341 7.41794L11.2593 14.6719L3.81923 24.3906ZM5.5 26C5.32314 26 5.16247 25.9414 5.00098 25.8848L12.5889 15.9746L15.4309 18.7577C15.5941 18.9199 15.7975 19 16 19C16.2025 19 16.4059 18.9199 16.5691 18.7578L19.4111 15.9746L26.999 25.8848C26.8384 25.9414 26.6777 26 26.5 26H5.5Z" fill="#1D4EAA"/>
</svg>
